<svg width="480" height="480" viewBox="0 0 480 480" fill="none" xmlns="http://www.w3.org/2000/svg">
<path d="M302.116 189.012C301.38 189.15 300.56 189.216 299.638 189.203C297.932 189.185 296.675 188.849 295.855 188.209C295.035 187.568 294.641 186.442 294.653 184.838L295.167 141.212C295.557 141.075 296.131 140.943 296.886 140.836C297.64 140.728 298.478 140.668 299.406 140.687C301.106 140.711 302.369 141.041 303.189 141.681C304.009 142.322 304.409 143.442 304.391 145.052L304.268 155.12C305.34 154.6 306.579 154.151 307.968 153.78C309.357 153.41 310.901 153.23 312.607 153.249C317.031 153.304 320.545 154.484 323.148 156.801C325.751 159.119 327.019 162.591 326.964 167.206L326.707 188.947C326.318 189.037 325.743 189.156 324.989 189.288C324.229 189.425 323.421 189.491 322.547 189.479C320.793 189.46 319.512 189.125 318.692 188.484C317.872 187.843 317.477 186.718 317.49 185.114L317.698 167.527C317.728 165.091 317.112 163.324 315.862 162.217C314.611 161.109 312.965 160.54 310.918 160.515C309.607 160.497 308.385 160.688 307.26 161.095C306.14 161.496 305.105 161.98 304.183 162.555L303.87 188.672C303.433 188.761 302.853 188.875 302.116 189.012Z" fill="#1D68C1"/>
<path d="M371.382 184.904C370.992 185.656 370.282 186.327 369.259 186.903C367.846 187.773 366.06 188.497 363.889 189.079C361.719 189.661 359.258 189.94 356.479 189.931C353.946 189.925 351.663 189.638 349.623 189.068C347.579 188.505 345.838 187.632 344.375 186.463C342.922 185.292 341.804 183.806 341.031 182.004C340.258 180.202 339.879 178.062 339.885 175.585L339.946 154.357C340.334 154.215 340.908 154.083 341.66 153.957C342.415 153.843 343.256 153.783 344.18 153.785C345.884 153.79 347.144 154.1 347.972 154.71C348.8 155.32 349.204 156.454 349.207 158.105L349.155 175.468C349.149 178.001 349.786 179.809 351.072 180.914C352.355 182.008 354.191 182.568 356.573 182.572C358.076 182.578 359.362 182.434 360.407 182.146C361.452 181.858 362.244 181.543 362.783 181.203L362.864 154.416C363.252 154.274 363.826 154.142 364.585 154.02C365.34 153.906 366.155 153.842 367.029 153.847C368.782 153.85 370.061 154.159 370.859 154.773C371.657 155.386 372.053 156.516 372.056 158.167L371.986 182.099C371.97 183.216 371.771 184.152 371.382 184.904Z" fill="#1D68C1"/>
<path d="M415.689 180.504C415.381 183.971 413.86 186.574 411.115 188.297C408.371 190.029 404.519 190.675 399.56 190.236C397.526 190.061 395.693 189.748 394.061 189.305C392.43 188.862 391.033 188.306 389.864 187.628C388.703 186.95 387.82 186.175 387.224 185.303C386.628 184.431 386.369 183.494 386.457 182.503C386.537 181.562 386.822 180.762 387.304 180.103C387.786 179.445 388.388 178.928 389.128 178.537C390.437 179.552 391.966 180.487 393.713 181.335C395.461 182.191 397.525 182.721 399.899 182.925C401.933 183.1 403.497 182.9 404.589 182.326C405.69 181.752 406.288 180.863 406.398 179.677C406.573 177.651 405.206 176.18 402.29 175.272L398.216 173.94C394.627 172.78 392.024 171.275 390.415 169.435C388.806 167.595 388.122 165.267 388.37 162.445C388.656 159.224 390.17 156.73 392.922 154.948C395.674 153.165 399.382 152.479 404.035 152.888C405.815 153.041 407.453 153.323 408.941 153.734C410.428 154.137 411.705 154.652 412.772 155.264C413.839 155.884 414.653 156.576 415.205 157.347C415.758 158.118 415.998 158.978 415.918 159.919C415.838 160.809 415.569 161.575 415.121 162.208C414.664 162.84 414.146 163.33 413.566 163.677C413.147 163.344 412.592 162.988 411.901 162.633C411.21 162.27 410.443 161.934 409.592 161.607C408.749 161.28 407.848 160.997 406.896 160.73C405.944 160.473 405.002 160.3 404.061 160.22C402.129 160.052 400.59 160.226 399.446 160.75C398.302 161.273 397.678 162.103 397.576 163.239C397.503 164.079 397.75 164.803 398.317 165.405C398.884 166.007 399.925 166.542 401.43 167.029L404.994 168.241C409.025 169.54 411.876 171.176 413.546 173.143C415.233 175.143 415.944 177.588 415.689 180.504Z" fill="#1D68C1"/>
<path d="M439.085 184.115C440.035 184.795 441.355 185.14 443.061 185.142C443.886 185.145 444.729 185.048 445.583 184.855C446.436 184.661 447.198 184.415 447.885 184.126C448.271 184.515 448.599 184.989 448.87 185.548C449.134 186.111 449.267 186.753 449.268 187.486C449.265 188.946 448.609 190.148 447.29 191.09C445.975 192.04 443.86 192.506 440.942 192.5C437.1 192.491 434.072 191.62 431.86 189.894C429.649 188.168 428.547 185.301 428.554 181.311L428.611 147.821C428.998 147.724 429.569 147.604 430.324 147.461C431.08 147.318 431.898 147.245 432.772 147.248C434.478 147.25 435.725 147.571 436.526 148.203C437.327 148.835 437.726 149.96 437.719 151.56L437.709 157.613L448.436 157.63C448.673 158.021 448.895 158.53 449.092 159.163C449.289 159.797 449.377 160.477 449.377 161.21C449.377 162.479 449.086 163.4 448.496 163.977C447.91 164.562 447.133 164.848 446.16 164.846L437.694 164.829L437.67 180.734C437.669 182.311 438.142 183.43 439.085 184.115Z" fill="#1D68C1"/>
<g clip-path="url(#clip0_698_977)">
<path d="M203.564 161.007C203.564 161.007 207.237 159.104 206.537 164.875C205.838 170.636 197.927 178.022 196.734 185.449C195.54 192.877 216.073 256.79 217.215 260.638C218.367 264.485 218.944 266.943 218.944 266.943L143.323 259.238C143.323 259.238 122.482 242.08 123.016 242.429C123.541 242.779 150.874 201.641 150.874 201.641L166.459 166.49L203.564 161.007Z" fill="#D7EBFF" stroke="#3B3548" stroke-width="3" stroke-miterlimit="10"/>
<path d="M171.983 312.947C174.143 312.649 240.505 312.474 241.729 313.873C242.954 315.272 255.432 324.86 254.866 334.54C254.3 344.21 207.679 421.743 207.679 421.743C207.679 421.743 198.657 419.47 192.002 421.743C185.346 424.017 200.746 416.168 209.16 423.492C217.575 430.817 219.077 434.345 217.884 441.7C216.691 449.056 215.106 450.105 215.106 450.105C215.106 450.105 159.957 450.918 156.635 450.105C153.312 449.292 191.302 382.303 191.302 382.303L171.983 312.947Z" fill="#D7EBFF" stroke="#3B3548" stroke-width="3" stroke-miterlimit="10"/>
<path d="M216.609 265.298C217.483 266.069 245.742 265.637 248.858 266.944C251.975 268.25 254.516 276.089 255.298 278.167C256.09 280.245 255.206 281.212 253.899 281.212C252.593 281.212 251.801 281.613 250.659 280.276C249.517 278.938 249.085 271.758 245.844 270.966C242.604 270.174 218.789 269.124 217.308 268.517C215.827 267.911 216.609 265.298 216.609 265.298Z" fill="#D7EBFF" stroke="#3B3548" stroke-width="3" stroke-miterlimit="10"/>
<path d="M142.068 228.357C142.068 228.357 133.17 233.572 131.719 239.662C130.269 245.763 138.313 253.519 145.977 256.698C153.641 259.876 238.047 266.522 242.336 267.067C246.626 267.612 247.686 271.923 248.611 274.546C249.537 277.169 249.085 281.644 245.309 280.78C241.534 279.916 239.579 272.9 236.051 272.632C232.522 272.365 234.24 280.08 230.023 280.78C225.805 281.479 206.352 280.512 206.002 288.228C205.653 295.943 177.137 315.807 175.522 315.293C173.907 314.779 253.313 399.071 253.313 399.071L245.299 406.745C245.299 406.745 254.105 396.633 266.676 395.82C279.257 395.008 285.882 400.799 286.499 403.69C287.126 406.58 254.31 452.821 251.471 451.504C248.632 450.187 115.908 316.867 115.641 315.303C115.363 313.729 106.187 289.668 106.187 289.668C106.187 289.668 82.722 275.358 84.9646 236.257C87.2071 197.156 142.377 193.761 141.554 191.663C140.731 189.564 161.254 159.804 157.674 159.793C154.094 159.783 146.78 158.045 148.21 146.935C149.002 140.834 155.585 139.456 159.237 140.968C161.459 141.884 164.062 145.021 166.438 145.69C166.438 145.69 175.974 131.73 185.665 134.755C195.355 137.779 205.097 150.124 203.513 158.199C200.962 168.558 193.36 181.54 180.953 183.125C168.238 184.349 170.625 177.693 168.475 176.458C166.685 175.44 165.667 176.695 167.035 180.635C168.393 184.585 169.164 186.694 170.142 189.605C171.839 194.646 191.312 260.833 190.911 261.533" fill="#D7EBFF"/>
<path d="M142.068 228.357C142.068 228.357 133.17 233.572 131.719 239.662C130.269 245.763 138.313 253.519 145.977 256.698C153.641 259.876 238.047 266.522 242.336 267.067C246.626 267.612 247.686 271.923 248.611 274.546C249.537 277.169 249.085 281.644 245.309 280.78C241.534 279.916 239.579 272.9 236.051 272.632C232.522 272.365 234.24 280.08 230.023 280.78C225.805 281.479 206.352 280.512 206.002 288.228C205.653 295.943 177.137 315.807 175.522 315.293C173.907 314.779 253.313 399.071 253.313 399.071L245.299 406.745C245.299 406.745 254.105 396.633 266.676 395.82C279.257 395.008 285.882 400.799 286.499 403.69C287.126 406.58 254.31 452.821 251.471 451.504C248.632 450.187 115.908 316.867 115.641 315.303C115.363 313.729 106.187 289.668 106.187 289.668C106.187 289.668 82.722 275.358 84.9646 236.257C87.2071 197.156 142.377 193.761 141.554 191.663C140.731 189.564 161.254 159.804 157.674 159.793C154.094 159.783 146.78 158.045 148.21 146.935C149.002 140.834 155.585 139.456 159.237 140.968C161.459 141.884 164.062 145.021 166.438 145.69C166.438 145.69 175.974 131.73 185.665 134.755C195.355 137.779 205.097 150.124 203.513 158.199C200.962 168.558 193.36 181.54 180.953 183.125C168.238 184.349 170.625 177.693 168.475 176.458C166.685 175.44 165.667 176.695 167.035 180.635C168.393 184.585 169.164 186.694 170.142 189.605C171.839 194.646 191.312 260.833 190.911 261.533" stroke="#3B3548" stroke-width="3" stroke-miterlimit="10"/>
<path d="M207.566 287.672C206.363 286.715 204.521 282.878 206.795 281.829C209.068 280.78 260.905 281.695 265.102 281.613C269.309 281.52 272.899 277.344 273.856 274.978C274.628 273.085 290.706 236.597 297.043 220.549C298.453 216.969 300.376 218.296 300.027 219.983C299.543 222.308 276.716 279.792 275.924 281.284C275.132 282.765 274.391 285.265 274.34 287.075C274.319 288.31 207.566 287.672 207.566 287.672Z" fill="white" stroke="#3B3548" stroke-width="2" stroke-miterlimit="10"/>
<path d="M179.05 184.565C178.176 184.472 174.966 184.565 173.156 186.313C171.345 188.062 172.045 196.734 172.394 197.609C172.744 198.483 166.706 177.652 166.706 177.652C166.706 177.652 167.909 176.86 168.496 177.652C169.072 178.444 171.119 181.55 173.166 182.271C175.213 182.991 179.05 184.565 179.05 184.565Z" fill="#3B3548"/>
<path d="M131.946 329.87C134.558 325.436 143.971 315.385 155.03 315.684C166.088 315.982 179.194 319.624 179.05 319.459C178.906 319.295 173.711 307.742 172.878 307.917C172.045 308.092 116.186 308.267 116.186 308.267L113.707 309.635L115.661 315.303L131.946 329.87Z" fill="#3B3548"/>
<path d="M368.003 315.303C259.084 315.303 150.164 315.303 41.2444 315.303C35.1442 315.303 29.0439 315.303 22.9437 315.303C22.5836 315.303 20.6702 315.262 19.1272 313.842C18.1499 312.947 17.543 311.703 17.543 310.334V293.35C17.543 290.624 19.9707 288.392 22.9437 288.392H368.014C370.987 288.392 373.414 290.624 373.414 293.35V310.334C373.404 313.061 370.976 315.303 368.003 315.303Z" fill="#D7EBFF" stroke="#3B3548" stroke-width="3" stroke-miterlimit="10"/>
<path d="M185.284 148.076C183.494 146.955 180.069 146.235 178.608 147.963C177.95 148.745 177.672 150.051 178.3 151.018C179.441 152.777 183.134 152.705 185.12 151.512C185.449 151.317 186.745 150.535 186.581 149.527C186.467 148.827 185.727 148.354 185.284 148.076Z" fill="#3B3548"/>
<path d="M197.793 153.899C196.847 154.022 196.261 154.938 196.055 155.504C195.602 156.81 196.333 158.785 198.349 159.228C199.583 159.495 201.569 160.256 202.289 159.32C203.163 158.189 201.857 155.72 201.085 155.102C200.602 154.722 200.005 154.485 199.501 154.29C198.719 154.002 198.287 153.837 197.793 153.899Z" fill="#3B3548"/>
<path d="M184.904 154.958C183.895 154.691 182.496 155.277 182.291 156.46C182.116 157.489 182.918 158.477 183.906 158.703C184.801 158.909 185.829 158.487 186.22 157.654C186.58 156.892 186.241 156.141 186.189 156.039C186.159 155.987 185.768 155.185 184.904 154.958Z" fill="#3B3548"/>
<path d="M189.389 158.847C188.617 159.125 188.37 159.917 188.154 161.398C187.774 164.011 187.125 165.091 186.189 165.801C184.852 166.809 183.988 166.778 183.998 167.344C184.008 168.095 184.492 168.99 185.191 169.216C185.428 169.288 186.056 169.412 187.403 168.188C190.386 165.451 190.818 161.604 190.757 160.256C190.736 159.896 190.695 159.186 190.273 158.898C189.923 158.662 189.502 158.806 189.389 158.847Z" fill="#3B3548"/>
<path d="M175.687 157.283C174.606 157.685 173.393 159.649 173.29 161.779C173.135 164.916 175.419 168.219 177.075 167.992C177.898 167.879 178.742 166.881 178.69 166.027C178.618 164.741 176.612 164.69 176.304 163.198C175.985 161.604 178.042 160.534 177.621 158.734C177.497 158.219 177.127 157.458 176.51 157.252C176.139 157.119 175.81 157.242 175.687 157.283Z" fill="#3B3548"/>
<path d="M161.439 151.101C161.212 150.01 160.431 149.249 160.307 149.136C159.536 148.416 159.32 148.683 157.55 147.603C156.84 147.171 156.645 146.986 156.203 146.945C155.482 146.873 154.557 147.192 154.299 147.819C153.96 148.632 154.886 149.64 155.596 150.401C156.953 151.872 159.165 153.241 160.503 152.695C160.677 152.623 161.212 152.407 161.408 151.893C161.5 151.667 161.511 151.42 161.439 151.101Z" fill="#3B3548"/>
<path d="M311.424 228.079C311.424 228.079 328.151 214.788 331.206 212.587Z" fill="#FDF5F2"/>
<path d="M311.424 228.079C311.424 228.079 328.151 214.788 331.206 212.587" stroke="#3B3548" stroke-width="4" stroke-miterlimit="10" stroke-linecap="round"/>
<path d="M314.799 238.232C319.129 237.533 343.469 232.276 343.469 232.276Z" fill="#FDF5F2"/>
<path d="M314.799 238.232C319.129 237.533 343.469 232.276 343.469 232.276" stroke="#3B3548" stroke-width="4" stroke-miterlimit="10" stroke-linecap="round"/>
<path d="M315.622 248.211C318.769 249.959 337.512 254.29 340.136 255.36Z" fill="#FDF5F2"/>
<path d="M315.622 248.211C318.769 249.959 337.512 254.29 340.136 255.36" stroke="#3B3548" stroke-width="4" stroke-miterlimit="10" stroke-linecap="round"/>
<path d="M172.003 132.491C170.265 132.584 168.969 131.411 167.745 130.568C163.712 127.821 162.406 121.381 164.916 117.071C166.294 114.705 164.792 113.615 163.239 112.617C161.181 111.3 159.011 110.158 156.851 109.037C155.102 108.132 153.23 106.887 153.178 105.056C153.127 103.173 155.328 102.957 156.953 102.206C162.426 99.6859 168.177 98.04 173.876 96.25C176.9 95.3036 178.032 96.5484 177.384 99.7374C176.797 102.597 176.561 105.56 175.655 108.306C174.822 110.806 175.974 111.691 177.805 112.709C182.784 115.477 185.192 120.384 184.07 125.126C183.165 128.86 177.168 132.502 172.003 132.491Z" fill="#3B3548"/>
<path d="M68.0833 359.918C68.0833 361.235 67.8055 362.243 67.2603 362.953C66.7048 363.663 65.8304 364.331 64.6165 364.959C63.9376 365.381 63.0838 365.761 62.055 366.101C61.0263 366.44 59.905 366.728 58.6706 366.965C57.4361 367.201 56.1606 367.397 54.8541 367.551C53.5373 367.706 52.2309 367.788 50.9141 367.788C47.1799 367.788 43.7338 367.304 40.5551 366.327C37.3763 365.36 34.6194 363.848 32.2842 361.801C29.9491 359.754 28.118 357.151 26.8115 354.003C25.4948 350.855 24.8467 347.1 24.8467 342.739C24.8467 338.593 25.5153 334.931 26.8527 331.752C28.19 328.573 30.0314 325.94 32.3665 323.831C34.7017 321.733 37.4175 320.138 40.5242 319.068C43.6206 317.988 46.9536 317.453 50.5335 317.453C52.8995 317.453 55.0393 317.649 56.9527 318.039C58.8661 318.43 60.5223 318.955 61.9213 319.613C63.3101 320.272 64.3799 321.054 65.1103 321.979C65.8407 322.895 66.211 323.862 66.211 324.86C66.211 325.909 65.923 326.825 65.3469 327.617C64.7708 328.409 64.1125 329.006 63.3821 329.427C62.0139 328.532 60.3577 327.709 58.4134 326.948C56.4692 326.187 54.0826 325.806 51.2433 325.806C48.9287 325.806 46.7993 326.187 44.8653 326.948C42.9211 327.709 41.2546 328.8 39.8658 330.219C38.4771 331.639 37.3866 333.398 36.5945 335.497C35.8024 337.595 35.4115 339.992 35.4115 342.667C35.4115 345.557 35.8024 348.047 36.5945 350.156C37.3866 352.254 38.4771 354.003 39.8658 355.392C41.2546 356.781 42.9108 357.809 44.8345 358.468C46.7479 359.126 48.8362 359.455 51.0993 359.455C52.6218 359.455 54.0106 359.322 55.2759 359.064C56.5412 358.797 57.5082 358.488 58.1871 358.118V347.162H48.1058C47.8383 346.74 47.6017 346.195 47.396 345.506C47.1902 344.827 47.0771 344.066 47.0771 343.222C47.0771 341.854 47.4062 340.836 48.0646 340.146C48.723 339.467 49.5768 339.118 50.6261 339.118H63.8656C65.1823 339.118 66.211 339.488 66.9826 340.218C67.7438 340.959 68.1244 341.978 68.1244 343.294V359.918H68.0833Z" fill="#D7EBFF" stroke="#3B3548" stroke-width="2" stroke-miterlimit="10"/>
<path d="M67.1678 395.625V411.457C66.6946 411.56 66.0259 411.693 65.1618 411.848C64.2977 412.002 63.3616 412.084 62.3637 412.084C60.368 412.084 58.9587 411.714 58.146 410.983C57.3334 410.253 56.9219 409.019 56.9219 407.28V367.726C56.9219 366.728 57.1893 365.967 57.714 365.443C58.2386 364.918 58.9793 364.496 59.9154 364.177C60.759 363.92 61.6848 363.683 62.7135 363.467C63.7422 363.262 64.8018 363.087 65.9025 362.953C67.0032 362.819 68.1039 362.727 69.2149 362.675C70.3157 362.624 71.3649 362.593 72.3628 362.593C79.2963 362.593 84.5118 364.074 87.9991 367.047C91.4865 370.01 93.2353 374.022 93.2353 379.063C93.2353 384.103 91.5276 388.126 88.1123 391.119C84.697 394.113 79.7592 395.615 73.2989 395.615H67.1678V395.625ZM72.6817 387.426C75.8295 387.426 78.319 386.747 80.1295 385.379C81.9401 384.011 82.8453 381.912 82.8453 379.073C82.8453 376.347 81.9915 374.289 80.2838 372.932C78.5762 371.563 76.097 370.884 72.836 370.884C70.5728 370.884 68.6594 371.039 67.0855 371.358V387.426H72.6817V387.426Z" fill="#D7EBFF" stroke="#3B3548" stroke-width="2" stroke-miterlimit="10"/>
<path d="M65.5527 445.404H47.9001C47.324 447.348 46.7068 449.375 46.0484 451.473C45.3901 453.572 44.8551 455.31 44.4334 456.668C43.9087 456.874 43.3429 457.059 42.736 457.224C42.1291 457.378 41.3781 457.46 40.4934 457.46C38.7035 457.46 37.3147 457.111 36.3169 456.401C35.319 455.691 34.8149 454.683 34.8149 453.366C34.8149 452.739 34.9075 452.121 35.0927 451.514C35.2779 450.907 35.4939 450.218 35.7614 449.426C36.1831 447.955 36.7489 446.186 37.4587 444.108C38.1685 442.03 38.9298 439.777 39.7425 437.328C40.5551 434.89 41.4398 432.36 42.3862 429.767C43.3326 427.165 44.2379 424.645 45.102 422.206C45.9661 419.768 46.8097 417.474 47.6224 415.355C48.435 413.226 49.1346 411.405 49.7106 409.883C50.3896 409.512 51.408 409.152 52.7453 408.782C54.0826 408.411 55.4405 408.226 56.7984 408.226C58.6398 408.226 60.3166 408.504 61.8391 409.049C63.3616 409.605 64.3286 410.479 64.7503 411.693C65.7996 414.584 66.9518 417.906 68.2171 421.661C69.4824 425.416 70.7477 429.294 72.0336 433.286C73.3195 437.277 74.5642 441.196 75.7781 445.023C76.9817 448.86 78.0618 452.296 79.0082 455.341C78.4836 455.917 77.7635 456.401 76.8377 456.802C75.9221 457.193 74.8317 457.388 73.5664 457.388C71.725 457.388 70.4288 457.059 69.6676 456.401C68.9063 455.742 68.3097 454.703 67.8982 453.284L65.5527 445.404ZM56.7264 417.197C56.2532 418.513 55.7389 419.984 55.1936 421.61C54.6381 423.235 54.0621 424.933 53.4654 426.692C52.8585 428.451 52.2413 430.241 51.6137 432.051C50.9862 433.862 50.3793 435.641 49.8032 437.37H63.5159L57.1379 417.197H56.7264Z" fill="#D7EBFF" stroke="#3B3548" stroke-width="2" stroke-miterlimit="10"/>
<path d="M56.7367 408.772C57.1688 410.294 57.9506 411.127 58.4032 411.528C60.7281 413.596 64.7503 413.36 66.3037 411.631C66.5094 411.405 66.8592 411.004 66.8078 410.52C66.746 409.841 65.9334 409.409 63.1764 408.247C60.1006 406.94 59.7405 406.889 58.969 406.282C57.6934 405.253 57.3231 404.317 56.9219 404.441C56.5618 404.554 56.3252 405.469 56.7367 408.772Z" fill="#3B3548"/>
<path d="M25.9268 315.303C27.6756 317.556 27.3669 329.551 27.3258 329.767C27.2847 329.983 33.9404 322.278 34.2902 321.712C34.6399 321.146 46.6347 317.031 46.6347 317.031C46.6347 317.031 44.8447 315.591 44.6184 315.54C44.3921 315.488 25.9268 315.303 25.9268 315.303Z" fill="#3B3548"/>
<path d="M353.622 359.939C353.622 361.256 353.344 362.264 352.799 362.974C352.244 363.683 351.369 364.352 350.155 364.98C349.476 365.401 348.623 365.782 347.594 366.121C346.565 366.461 345.444 366.749 344.209 366.986C342.975 367.222 341.699 367.418 340.393 367.572C339.076 367.726 337.77 367.809 336.453 367.809C332.719 367.809 329.273 367.325 326.094 366.348C322.915 365.381 320.158 363.869 317.823 361.821C315.488 359.774 313.657 357.172 312.35 354.024C311.034 350.876 310.385 347.121 310.385 342.759C310.385 338.614 311.054 334.952 312.391 331.773C313.729 328.594 315.57 325.961 317.905 323.852C320.241 321.753 322.956 320.159 326.063 319.089C329.159 318.009 332.492 317.474 336.072 317.474C338.438 317.474 340.578 317.669 342.491 318.06C344.405 318.451 346.061 318.976 347.46 319.634C348.849 320.293 349.919 321.074 350.649 322C351.379 322.916 351.75 323.883 351.75 324.881C351.75 325.93 351.462 326.845 350.886 327.637C350.31 328.43 349.651 329.026 348.921 329.448C347.553 328.553 345.896 327.73 343.952 326.969C342.008 326.208 339.621 325.827 336.782 325.827C334.468 325.827 332.338 326.208 330.404 326.969C328.46 327.73 326.793 328.82 325.405 330.24C324.016 331.66 322.925 333.419 322.133 335.517C321.341 337.616 320.95 340.013 320.95 342.687C320.95 345.578 321.341 348.068 322.133 350.176C322.925 352.275 324.016 354.024 325.405 355.413C326.793 356.801 328.45 357.83 330.373 358.488C332.287 359.147 334.375 359.476 336.638 359.476C338.161 359.476 339.549 359.342 340.815 359.085C342.08 358.828 343.047 358.509 343.726 358.139V347.183H333.645C333.377 346.761 333.14 346.216 332.935 345.527C332.729 344.848 332.616 344.087 332.616 343.243C332.616 341.875 332.945 340.856 333.603 340.167C334.262 339.488 335.116 339.138 336.165 339.138H349.404C350.721 339.138 351.75 339.509 352.521 340.239C353.283 340.98 353.663 341.998 353.663 343.315V359.939H353.622Z" fill="#D7EBFF" stroke="#3B3548" stroke-width="2" stroke-miterlimit="10"/>
<path d="M352.707 395.645V411.477C352.233 411.58 351.565 411.714 350.701 411.868C349.837 412.022 348.9 412.105 347.903 412.105C345.907 412.105 344.498 411.734 343.685 411.004C342.872 410.274 342.461 409.039 342.461 407.301V367.747C342.461 366.749 342.728 365.988 343.253 365.463C343.777 364.938 344.518 364.517 345.454 364.198C346.298 363.941 347.224 363.704 348.252 363.488C349.281 363.282 350.341 363.107 351.441 362.974C352.542 362.84 353.643 362.747 354.754 362.696C355.854 362.644 356.904 362.614 357.902 362.614C364.835 362.614 370.051 364.095 373.538 367.068C377.025 370.031 378.774 374.042 378.774 379.083C378.774 384.124 377.066 388.146 373.651 391.14C370.236 394.133 365.298 395.635 358.838 395.635H352.707V395.645ZM358.221 387.447C361.368 387.447 363.858 386.768 365.668 385.399C367.479 384.031 368.384 381.933 368.384 379.093C368.384 376.367 367.53 374.31 365.823 372.952C364.115 371.584 361.636 370.905 358.375 370.905C356.112 370.905 354.198 371.059 352.624 371.378V387.447H358.221V387.447Z" fill="#D7EBFF" stroke="#3B3548" stroke-width="2" stroke-miterlimit="10"/>
<path d="M351.091 445.425H333.439C332.863 447.369 332.245 449.395 331.587 451.494C330.929 453.593 330.394 455.331 329.972 456.689C329.447 456.895 328.882 457.08 328.275 457.244C327.668 457.399 326.917 457.481 326.032 457.481C324.242 457.481 322.853 457.131 321.855 456.421C320.858 455.712 320.354 454.704 320.354 453.387C320.354 452.759 320.446 452.142 320.631 451.535C320.816 450.928 321.032 450.239 321.3 449.447C321.722 447.976 322.287 446.206 322.997 444.128C323.707 442.05 324.468 439.798 325.281 437.349C326.094 434.911 326.978 432.381 327.925 429.788C328.871 427.186 329.776 424.665 330.641 422.227C331.505 419.789 332.348 417.495 333.161 415.376C333.974 413.247 334.673 411.426 335.249 409.903C335.928 409.533 336.947 409.173 338.284 408.803C339.621 408.432 340.979 408.247 342.337 408.247C344.178 408.247 345.855 408.525 347.378 409.07C348.9 409.626 349.867 410.5 350.289 411.714C351.338 414.604 352.49 417.927 353.756 421.682C355.021 425.437 356.286 429.315 357.572 433.306C358.858 437.298 360.103 441.217 361.317 445.044C362.52 448.881 363.6 452.317 364.547 455.362C364.022 455.938 363.302 456.421 362.376 456.823C361.461 457.214 360.37 457.409 359.105 457.409C357.264 457.409 355.967 457.08 355.206 456.421C354.445 455.763 353.848 454.724 353.437 453.304L351.091 445.425ZM342.275 417.217C341.802 418.534 341.288 420.005 340.743 421.631C340.187 423.256 339.611 424.953 339.014 426.712C338.407 428.471 337.79 430.261 337.163 432.072C336.535 433.882 335.928 435.662 335.352 437.39H349.065L342.687 417.217H342.275Z" fill="#D7EBFF" stroke="#3B3548" stroke-width="2" stroke-miterlimit="10"/>
<path d="M342.286 408.792C342.718 410.315 343.5 411.148 343.952 411.549C346.277 413.617 350.299 413.38 351.853 411.652C352.059 411.426 352.408 411.025 352.357 410.541C352.295 409.862 351.482 409.43 348.726 408.268C345.65 406.961 345.29 406.91 344.518 406.303C343.242 405.274 342.872 404.338 342.471 404.461C342.111 404.575 341.874 405.49 342.286 408.792Z" fill="#3B3548"/>
<path d="M311.466 315.313C313.214 317.566 312.906 329.561 312.865 329.777C312.823 329.993 319.479 322.288 319.829 321.722C320.179 321.157 332.173 317.042 332.173 317.042C332.173 317.042 339.045 315.355 338.829 315.313C338.603 315.272 311.466 315.313 311.466 315.313Z" fill="#3B3548"/>
<path d="M48.4248 366.78C55.5126 366.224 55.7801 365.134 59.5451 362.85C63.5777 360.402 67.5793 356.781 67.5279 356.42C67.4765 356.06 68.464 361.554 67.2193 362.624C65.9746 363.693 59.792 366.841 56.7265 367.397C48.754 368.847 48.4248 366.78 48.4248 366.78Z" fill="#3B3548"/>
</g>
<g style="mix-blend-mode:multiply">
<path d="M274.696 348.44C301.262 348.44 322.799 326.904 322.799 300.338C322.799 273.772 301.262 252.235 274.696 252.235C248.13 252.235 226.594 273.772 226.594 300.338C226.594 326.904 248.13 348.44 274.696 348.44Z" fill="#B0D7FE"/>
</g>
<defs>
<clipPath id="clip0_698_977">
<rect width="363.813" height="437.499" fill="white" transform="translate(16 21)"/>
</clipPath>
</defs>
</svg>
