<svg width="154" height="26" viewBox="0 0 154 26" fill="none" xmlns="http://www.w3.org/2000/svg">
<circle cx="12.5001" cy="10.9444" r="3.83333" stroke="#050505" stroke-width="1.5" stroke-linecap="round"/>
<circle cx="12.5" cy="13.5" r="11.5" stroke="#050505" stroke-width="1.5"/>
<path d="M20.0029 22.1995C20.1012 22.1209 20.1409 21.989 20.0966 21.8711C19.6163 20.5939 18.6503 19.468 17.3317 18.6536C15.9456 17.7974 14.2472 17.3333 12.4999 17.3333C10.7527 17.3333 9.05428 17.7974 7.66811 18.6536C6.34951 19.468 5.38354 20.5939 4.90324 21.8711C4.85892 21.989 4.89861 22.1209 4.99698 22.1995V22.1995C9.38464 25.7053 15.6152 25.7053 20.0029 22.1995V22.1995Z" stroke="#050505" stroke-width="1.5" stroke-linecap="round"/>
<path d="M41.84 11.24V15.74C41.84 16.18 41.8533 16.6467 41.88 17.14L41.9 17.82C41.9 17.9267 41.8467 18.02 41.74 18.1C41.6467 18.1667 41.42 18.2733 41.06 18.42C40.7 18.5667 40.46 18.64 40.34 18.64C40.26 18.64 40.22 18.5333 40.22 18.32L40.26 17.54C40.2733 17.0067 40.28 16.4067 40.28 15.74V8.96C40.28 8.29333 40.2667 7.7 40.24 7.18C40.7067 7.24667 41.1733 7.37333 41.64 7.56C42.12 7.73333 42.36 7.88 42.36 8C42.36 8.10667 42.1867 8.24667 41.84 8.42V11.2C42.6267 10.2133 43.2733 9.18667 43.78 8.12C44.2867 7.04 44.8733 5.48667 45.54 3.46C47.02 3.96667 47.76 4.32 47.76 4.52C47.76 4.6 47.6733 4.66 47.5 4.7C47.3267 4.74 47.2 4.80667 47.12 4.9C47.0533 4.98 46.9133 5.24 46.7 5.68C46.5 6.10667 46.32 6.44667 46.16 6.7H49.4L49.84 6.06C49.9333 5.91333 50.04 5.84 50.16 5.84C50.28 5.84 50.4733 5.96 50.74 6.2C51.0067 6.44 51.2867 6.67333 51.58 6.9C51.8867 7.11333 52.04 7.32 52.04 7.52C52.04 7.70667 51.8733 7.82667 51.54 7.88C51.2067 7.92 50.8733 8.15333 50.54 8.58C49.8467 9.43333 49.2067 10.1333 48.62 10.68C49.7667 11.3467 51.3867 11.8267 53.48 12.12L53.44 12.5C52.7467 12.5667 52.2867 12.6533 52.06 12.76C51.8467 12.8533 51.62 13.0867 51.38 13.46C51.2733 13.62 51.1733 13.7 51.08 13.7C51 13.7 50.5267 13.4733 49.66 13.02C48.8067 12.5667 48.1 12.1 47.54 11.62C45.9933 12.8733 44.16 13.8933 42.04 14.68L41.92 14.32C43.8933 13.2 45.5 12.0267 46.74 10.8C46.2467 10.2 45.7533 9.31333 45.26 8.14C44.4467 9.3 43.4133 10.3867 42.16 11.4L41.84 11.24ZM45.8 7.32C45.7333 7.44 45.6467 7.57333 45.54 7.72C46.18 8.62667 46.84 9.36 47.52 9.92C48.1867 9.13333 48.7733 8.26667 49.28 7.32H45.8ZM37.52 10.7C36.8133 11.7667 35.9067 12.8867 34.8 14.06L34.5 13.72C36.1667 11.32 37.6533 7.91333 38.96 3.5C40.44 4.11333 41.18 4.50667 41.18 4.68C41.18 4.76 41.08 4.84 40.88 4.92C40.68 4.98667 40.5333 5.07333 40.44 5.18C40.3467 5.27333 40.2467 5.44667 40.14 5.7C39.5933 6.96667 39.0733 8.04 38.58 8.92C39.18 9.06667 39.48 9.2 39.48 9.32C39.48 9.44 39.3467 9.57333 39.08 9.72V21.66C39.08 21.78 39.0467 21.8733 38.98 21.94C38.9267 22.0067 38.7 22.12 38.3 22.28C37.9 22.44 37.6533 22.52 37.56 22.52C37.48 22.52 37.44 22.4467 37.44 22.3L37.5 20.4C37.5133 19.8133 37.52 19.26 37.52 18.74V10.7ZM47.6 12.54C47.7333 12.62 48.0133 12.8533 48.44 13.24C48.88 13.6267 49.1 13.8733 49.1 13.98C49.1 14.0733 48.9733 14.1467 48.72 14.2C48.48 14.24 48.2 14.3667 47.88 14.58C46.96 15.1933 46.1467 15.6867 45.44 16.06C44.7467 16.4333 43.74 16.88 42.42 17.4L42.2 17.08C43.6133 16.1333 44.6867 15.3467 45.42 14.72C46.1667 14.08 46.8933 13.3533 47.6 12.54ZM49.44 14.88C49.7467 15.1467 50.0533 15.4533 50.36 15.8C50.68 16.1333 50.84 16.34 50.84 16.42C50.84 16.4867 50.74 16.52 50.54 16.52C50.1933 16.52 49.8133 16.66 49.4 16.94C48.6267 17.4867 47.5133 18.06 46.06 18.66C44.6067 19.2467 43.0733 19.7267 41.46 20.1L41.3 19.82C44.66 18.3667 47.3733 16.72 49.44 14.88ZM51.46 16.82C51.7267 17.06 52.0333 17.3867 52.38 17.8C52.7267 18.2 52.9 18.46 52.9 18.58C52.9 18.6733 52.7467 18.72 52.44 18.72C52.1467 18.72 51.7533 18.8667 51.26 19.16C48.4467 20.8267 44.7533 21.9133 40.18 22.42L40.14 22.04C44.7533 20.96 48.5267 19.22 51.46 16.82ZM65.76 8.84H69.64L70.4 7.64C70.5067 7.46667 70.6067 7.38 70.7 7.38C70.8867 7.38 71.2867 7.66 71.9 8.22C72.5267 8.76667 72.84 9.12 72.84 9.28C72.84 9.37333 72.7133 9.42 72.46 9.42H68.94C70.2333 9.78 70.88 10.04 70.88 10.2C70.88 10.2667 70.8 10.3333 70.64 10.4C70.4933 10.4667 70.38 10.56 70.3 10.68C70.22 10.7867 70.1533 10.98 70.1 11.26C69.3933 14.6067 68.7467 16.66 68.16 17.42C69.24 18.46 71.0533 19.3933 73.6 20.22L73.56 20.6C72.7333 20.6933 72.18 20.7933 71.9 20.9C71.6333 21.0067 71.3867 21.22 71.16 21.54C71.0933 21.6467 71.02 21.7 70.94 21.7C70.7933 21.7 70.2133 21.3133 69.2 20.54C68.1867 19.78 67.4733 19.1533 67.06 18.66C65.62 20.0067 63.14 21.2733 59.62 22.46L59.46 22.08C62.5133 20.64 64.76 19.1067 66.2 17.48C65.5067 16.3067 64.9267 14.3733 64.46 11.68C63.8467 12.7467 63.1533 13.7467 62.38 14.68L62.02 14.46C63.66 11.3 64.7467 7.7 65.28 3.66C67.0267 4.18 67.9 4.54667 67.9 4.76C67.9 4.82667 67.7933 4.88667 67.58 4.94C67.38 4.98 67.24 5.05333 67.16 5.16C67.08 5.26667 66.9067 5.7 66.64 6.46C66.3867 7.22 66.0933 8.01333 65.76 8.84ZM68.52 9.42H65.52C65.3467 9.83333 65.1467 10.2867 64.92 10.78C65.5333 13.22 66.24 15.0133 67.04 16.16C67.6667 14.8933 68.16 12.6467 68.52 9.42ZM60.44 10.56V6.1H56.3C55.94 6.1 55.66 6.14667 55.46 6.24L55.1 5.38C55.38 5.44667 55.7133 5.48 56.1 5.48H60.16L60.62 4.68C60.7 4.56 60.7867 4.5 60.88 4.5C60.9733 4.5 61.0867 4.53333 61.22 4.6C61.3667 4.66667 61.6333 4.82667 62.02 5.08C62.42 5.32 62.6333 5.45333 62.66 5.48C62.7 5.50667 62.72 5.54 62.72 5.58C62.72 5.72667 62.4933 5.96667 62.04 6.3L62.02 10.46C62.02 10.9 62.0267 11.2133 62.04 11.4C62.0533 11.5733 62.06 11.7067 62.06 11.8C62.06 11.8933 62 11.9867 61.88 12.08C61.7733 12.16 61.5733 12.2467 61.28 12.34C60.9867 12.4333 60.76 12.48 60.6 12.48C60.4933 12.48 60.44 12.38 60.44 12.18V11.22H57.76V18.26L63.26 15.84L63.44 16.2C60.6133 18.04 58.88 19.18 58.24 19.62C57.6133 20.06 57.2467 20.3667 57.14 20.54C57.0333 20.7133 56.9467 20.8 56.88 20.8C56.8133 20.8 56.6533 20.66 56.4 20.38C56.1467 20.1133 55.8667 19.7467 55.56 19.28C55.8667 19.0667 56.0533 18.92 56.12 18.84C56.1867 18.7467 56.22 18.6 56.22 18.4V11.74C56.22 10.9933 56.2 10.3267 56.16 9.74C56.8267 9.99333 57.3733 10.2667 57.8 10.56H60.44ZM84.56 6.06C82.5067 9.5 79.3 12.1733 74.94 14.08L74.76 13.72C78.8533 11.2267 81.74 7.88667 83.42 3.7C85.0333 4.38 85.84 4.82667 85.84 5.04C85.84 5.13333 85.7133 5.19333 85.46 5.22C85.2067 5.24667 85.0267 5.34 84.92 5.5C85.6267 6.92667 86.76 8.18 88.32 9.26C89.8933 10.3267 91.68 11.08 93.68 11.52L93.64 12C92.8133 11.9867 92.2467 12.0467 91.94 12.18C91.6333 12.3 91.3333 12.56 91.04 12.96C90.9733 13.0533 90.8867 13.1 90.78 13.1C90.5267 13.1 89.6067 12.4467 88.02 11.14C86.4467 9.83333 85.2933 8.14 84.56 6.06ZM83.1 9.36C83.9 9.45333 84.5 9.57333 84.9 9.72C85.3 9.85333 85.5 9.96 85.5 10.04C85.5 10.1333 85.32 10.2667 84.96 10.44V19.52C84.96 19.96 84.9733 20.4267 85 20.92L85.02 21.6C85.02 21.7067 84.9533 21.8067 84.82 21.9C84.7 21.9933 84.4533 22.1 84.08 22.22C83.7067 22.34 83.42 22.4 83.22 22.4C83.1267 22.4 83.08 22.3 83.08 22.1L83.12 21.32C83.1333 20.7867 83.14 20.1867 83.14 19.52V11.14C83.14 10.4733 83.1267 9.88 83.1 9.36ZM104.1 7.12C103.74 11.5867 103 14.84 101.88 16.88C100.76 18.92 98.4333 20.7867 94.9 22.48L94.72 22.14C97.64 20.3133 99.6133 18.1467 100.64 15.64C101.68 13.1333 102.293 9.25333 102.48 4C103.093 4.14667 103.66 4.31333 104.18 4.5C104.7 4.67333 105 4.79333 105.08 4.86C105.173 4.91333 105.22 4.98 105.22 5.06C105.22 5.14 105.1 5.22667 104.86 5.32C104.633 5.4 104.473 5.5 104.38 5.62C104.953 9.7 105.98 12.9467 107.46 15.36C108.953 17.7733 110.967 19.4533 113.5 20.4L113.44 20.78C113.067 20.7533 112.707 20.74 112.36 20.74C112.013 20.74 111.713 20.8 111.46 20.92C111.207 21.04 110.907 21.2733 110.56 21.62C110.467 21.7133 110.393 21.76 110.34 21.76C110.18 21.76 109.507 21.0867 108.32 19.74C107.133 18.4067 106.213 16.8533 105.56 15.08C104.907 13.2933 104.42 10.64 104.1 7.12ZM123.54 6.78C122.513 8.14 121.127 9.35333 119.38 10.42L119.16 10.14C121.093 8.26 122.507 6.04 123.4 3.48C124.773 4.12 125.46 4.52667 125.46 4.7C125.46 4.80667 125.373 4.87333 125.2 4.9C125.027 4.92667 124.9 4.98 124.82 5.06C124.753 5.12667 124.647 5.26667 124.5 5.48C124.367 5.68 124.2 5.90667 124 6.16H129.36L129.92 5.52C130.08 5.34667 130.2 5.26 130.28 5.26C130.373 5.26 130.72 5.51333 131.32 6.02C131.92 6.51333 132.22 6.80667 132.22 6.9C132.22 6.99333 132.18 7.05333 132.1 7.08C132.033 7.09333 131.847 7.1 131.54 7.1C131.247 7.1 130.933 7.22 130.6 7.46C130.28 7.68667 129.62 8.27333 128.62 9.22L128.28 9.02C128.827 8.02 129.2 7.27333 129.4 6.78H123.54ZM115.9 4.02C116.913 4.19333 117.64 4.4 118.08 4.64C118.52 4.88 118.74 5.19333 118.74 5.58C118.74 5.95333 118.627 6.31333 118.4 6.66C118.187 6.99333 117.98 7.16 117.78 7.16C117.7 7.16 117.633 7.13333 117.58 7.08C117.527 7.01333 117.44 6.85333 117.32 6.6C116.88 5.65333 116.36 4.88667 115.76 4.3L115.9 4.02ZM121.16 5.14L118.72 8.94C118.28 9.62 118 10.18 117.88 10.62C117.76 11.06 117.68 11.6467 117.64 12.38C117.613 13.1133 117.407 13.48 117.02 13.48C116.647 13.48 116.34 13.38 116.1 13.18C115.86 12.9667 115.74 12.7267 115.74 12.46C115.74 12.3533 115.767 12.2533 115.82 12.16C116.167 11.48 116.34 10.98 116.34 10.66C116.34 10.3267 116.227 10.04 116 9.8C115.773 9.56 115.42 9.32 114.94 9.08L115.04 8.8C115.72 8.93333 116.213 9 116.52 9C116.827 9 117.08 8.94667 117.28 8.84C117.48 8.73333 117.74 8.5 118.06 8.14L120.86 4.96L121.16 5.14ZM126.2 8.1C126.92 9.20667 127.813 10.0467 128.88 10.62C129.947 11.18 131.393 11.5933 133.22 11.86V12.28C132.447 12.28 131.907 12.3467 131.6 12.48C131.293 12.6 131.02 12.8333 130.78 13.18C130.7 13.3 130.62 13.36 130.54 13.36C130.38 13.36 129.873 13.08 129.02 12.52C128.18 11.96 127.527 11.38 127.06 10.78C126.607 10.1667 126.22 9.34667 125.9 8.32C125.86 8.37333 125.82 8.45333 125.78 8.56C125.313 9.70667 124.627 10.6267 123.72 11.32C122.827 12.0133 121.687 12.5533 120.3 12.94C120.353 12.9667 120.393 12.9933 120.42 13.02H126.88L127.3 12.46C127.42 12.2733 127.547 12.18 127.68 12.18C127.813 12.18 128.153 12.38 128.7 12.78C129.247 13.18 129.52 13.4533 129.52 13.6C129.52 13.7333 129.3 13.9067 128.86 14.12V16.24L128.88 17.68C128.88 17.8133 128.867 17.9067 128.84 17.96C128.813 18 128.707 18.0667 128.52 18.16C128.333 18.2533 128.107 18.34 127.84 18.42C127.587 18.4867 127.4 18.52 127.28 18.52C127.173 18.52 127.12 18.4133 127.12 18.2V13.64H120.02V18.46C120.02 18.5933 119.967 18.7 119.86 18.78C119.767 18.8467 119.52 18.9333 119.12 19.04C118.733 19.1467 118.447 19.2 118.26 19.2C118.18 19.2 118.14 19.12 118.14 18.96L118.18 18.3C118.207 17.8467 118.22 17.3 118.22 16.66V13.38L117.82 13.44L117.72 13.04C119.787 12.3867 121.36 11.5733 122.44 10.6C123.52 9.61333 124.247 8.36667 124.62 6.86C126.033 7.31333 126.74 7.64 126.74 7.84C126.74 7.93333 126.667 7.99333 126.52 8.02C126.373 8.04667 126.267 8.07333 126.2 8.1ZM122.78 14.04C123.433 14.2267 123.96 14.4133 124.36 14.6C124.773 14.7867 124.98 14.9267 124.98 15.02C124.98 15.1133 124.893 15.1933 124.72 15.26C124.56 15.3267 124.453 15.4067 124.4 15.5C124.36 15.5933 124.307 15.7933 124.24 16.1C123.92 17.5533 123.507 18.6667 123 19.44C122.507 20.2267 121.7 20.8533 120.58 21.32C119.473 21.7867 117.827 22.1733 115.64 22.48L115.62 22.14C117.567 21.62 119.04 21.0467 120.04 20.42C121.04 19.8067 121.727 18.9067 122.1 17.72C122.487 16.5333 122.713 15.3067 122.78 14.04ZM124.46 18.82C127.66 19.22 129.48 19.62 129.92 20.02C130.36 20.4333 130.58 20.8533 130.58 21.28C130.58 21.5467 130.513 21.8067 130.38 22.06C130.247 22.3133 130.127 22.44 130.02 22.44C129.927 22.44 129.833 22.4133 129.74 22.36C129.66 22.32 129.52 22.2 129.32 22C128.147 20.9333 126.487 19.98 124.34 19.14L124.46 18.82ZM140.34 10.88H141.32L141.92 9.92C142.013 9.78667 142.12 9.72 142.24 9.72C142.373 9.72 142.693 9.96 143.2 10.44C143.707 10.9067 143.96 11.2 143.96 11.32C143.96 11.44 143.853 11.5 143.64 11.5H140.34V12.42C141.247 12.7 141.933 12.9933 142.4 13.3C142.867 13.6067 143.1 14.0133 143.1 14.52C143.1 14.8667 143 15.1667 142.8 15.42C142.6 15.6733 142.38 15.8 142.14 15.8C142.02 15.8 141.907 15.6267 141.8 15.28C141.52 14.4133 141.033 13.6333 140.34 12.94V21.58C140.34 21.7267 140.287 21.8333 140.18 21.9C140.073 21.98 139.827 22.08 139.44 22.2C139.053 22.3333 138.82 22.4 138.74 22.4C138.673 22.4 138.64 22.34 138.64 22.22L138.68 21.28C138.707 20.64 138.72 20.0467 138.72 19.5V14.8C137.653 16.8 136.367 18.5 134.86 19.9L134.6 19.68C136.44 16.96 137.74 14.2333 138.5 11.5H136.06C135.713 11.5 135.427 11.5333 135.2 11.6L134.86 10.78C135.14 10.8467 135.473 10.88 135.86 10.88H138.72V5.96C138.72 5.08 138.7 4.32 138.66 3.68C139.62 3.94667 140.28 4.14667 140.64 4.28C141.013 4.41333 141.2 4.54667 141.2 4.68C141.2 4.8 140.913 4.98667 140.34 5.24V10.88ZM148.6 15.86L142.82 16.86C142.487 16.9 142.227 17 142.04 17.16L141.54 16.36C141.9 16.36 142.233 16.3333 142.54 16.28L148.6 15.22V5.66C148.6 4.94 148.587 4.30667 148.56 3.76C148.987 3.85333 149.46 3.98 149.98 4.14C150.5 4.28667 150.793 4.38667 150.86 4.44C150.927 4.49333 150.96 4.54667 150.96 4.6C150.96 4.76 150.733 4.95333 150.28 5.18V14.92L150.86 14.82L151.4 13.58C151.48 13.3933 151.567 13.3 151.66 13.3C151.753 13.3 152.027 13.46 152.48 13.78C152.947 14.0867 153.267 14.32 153.44 14.48C153.627 14.64 153.72 14.7667 153.72 14.86C153.72 14.94 153.607 15 153.38 15.04L150.28 15.58V19C150.28 19.5333 150.287 19.9533 150.3 20.26L150.34 21.26C150.34 21.38 150.28 21.48 150.16 21.56C150.04 21.64 149.78 21.7533 149.38 21.9C148.993 22.06 148.753 22.14 148.66 22.14C148.567 22.14 148.52 22.0667 148.52 21.92L148.58 20.8C148.593 20.4133 148.6 19.82 148.6 19.02V15.86ZM144.68 5.08C145.813 5.90667 146.56 6.53333 146.92 6.96C147.28 7.38667 147.46 7.80667 147.46 8.22C147.46 8.63333 147.333 9 147.08 9.32C146.84 9.62667 146.58 9.78 146.3 9.78C146.193 9.78 146.107 9.73333 146.04 9.64C145.987 9.53333 145.927 9.32 145.86 9C145.607 7.73333 145.14 6.49333 144.46 5.28L144.68 5.08ZM135.76 5.42C136.493 6.1 137.027 6.62667 137.36 7C137.707 7.37333 137.927 7.66667 138.02 7.88C138.113 8.08 138.16 8.29333 138.16 8.52C138.16 8.97333 138.033 9.39333 137.78 9.78C137.527 10.1533 137.287 10.34 137.06 10.34C136.847 10.34 136.72 10.1067 136.68 9.64C136.6 8.34667 136.213 7.00667 135.52 5.62L135.76 5.42ZM142.4 5.44C143.613 6.14667 144.22 6.56 144.22 6.68C144.22 6.78667 144.1 6.84667 143.86 6.86C143.687 6.86 143.5 7.01333 143.3 7.32C142.74 8.16 142 9.12 141.08 10.2L140.78 10.08C141.38 8.73333 141.92 7.18667 142.4 5.44ZM144.48 10.6C145.28 11.2 145.88 11.72 146.28 12.16C146.68 12.5867 146.88 12.9533 146.88 13.26C146.88 13.5533 146.8 13.84 146.64 14.12C146.493 14.3867 146.367 14.5667 146.26 14.66C146.153 14.74 146.013 14.78 145.84 14.78C145.667 14.78 145.54 14.5333 145.46 14.04C145.26 13.0133 144.867 11.9333 144.28 10.8L144.48 10.6Z" fill="#050505"/>
</svg>
