<svg width="166" height="28" viewBox="0 0 166 28" fill="none" xmlns="http://www.w3.org/2000/svg">
<path d="M10.476 11.136V17.436C10.476 18.052 10.4947 18.7053 10.532 19.396L10.56 20.348C10.56 20.4973 10.4853 20.628 10.336 20.74C10.2053 20.8333 9.888 20.9827 9.384 21.188C8.88 21.3933 8.544 21.496 8.376 21.496C8.264 21.496 8.208 21.3467 8.208 21.048L8.264 19.956C8.28267 19.2093 8.292 18.3693 8.292 17.436V7.944C8.292 7.01067 8.27333 6.18 8.236 5.452C8.88933 5.54533 9.54267 5.72267 10.196 5.984C10.868 6.22667 11.204 6.432 11.204 6.6C11.204 6.74933 10.9613 6.94533 10.476 7.188V11.08C11.5773 9.69867 12.4827 8.26133 13.192 6.768C13.9013 5.256 14.7227 3.08133 15.656 0.244C17.728 0.953333 18.764 1.448 18.764 1.728C18.764 1.84 18.6427 1.924 18.4 1.98C18.1573 2.036 17.98 2.12933 17.868 2.26C17.7747 2.372 17.5787 2.736 17.28 3.352C17 3.94933 16.748 4.42533 16.524 4.78H21.06L21.676 3.884C21.8067 3.67867 21.956 3.576 22.124 3.576C22.292 3.576 22.5627 3.744 22.936 4.08C23.3093 4.416 23.7013 4.74267 24.112 5.06C24.5413 5.35867 24.756 5.648 24.756 5.928C24.756 6.18933 24.5227 6.35733 24.056 6.432C23.5893 6.488 23.1227 6.81467 22.656 7.412C21.6853 8.60667 20.7893 9.58667 19.968 10.352C21.5733 11.2853 23.8413 11.9573 26.772 12.368L26.716 12.9C25.7453 12.9933 25.1013 13.1147 24.784 13.264C24.4853 13.3947 24.168 13.7213 23.832 14.244C23.6827 14.468 23.5427 14.58 23.412 14.58C23.3 14.58 22.6373 14.2627 21.424 13.628C20.2293 12.9933 19.24 12.34 18.456 11.668C16.2907 13.4227 13.724 14.8507 10.756 15.952L10.588 15.448C13.3507 13.88 15.6 12.2373 17.336 10.52C16.6453 9.68 15.9547 8.43867 15.264 6.796C14.1253 8.42 12.6787 9.94133 10.924 11.36L10.476 11.136ZM16.02 5.648C15.9267 5.816 15.8053 6.00267 15.656 6.208C16.552 7.47733 17.476 8.504 18.428 9.288C19.3613 8.18667 20.1827 6.97333 20.892 5.648H16.02ZM4.428 10.38C3.43867 11.8733 2.16933 13.4413 0.62 15.084L0.2 14.608C2.53333 11.248 4.61467 6.47867 6.444 0.299999C8.516 1.15867 9.552 1.70933 9.552 1.952C9.552 2.064 9.412 2.176 9.132 2.288C8.852 2.38133 8.64667 2.50267 8.516 2.652C8.38533 2.78267 8.24533 3.02533 8.096 3.38C7.33067 5.15333 6.60267 6.656 5.912 7.888C6.752 8.09333 7.172 8.28 7.172 8.448C7.172 8.616 6.98533 8.80267 6.612 9.008V25.724C6.612 25.892 6.56533 26.0227 6.472 26.116C6.39733 26.2093 6.08 26.368 5.52 26.592C4.96 26.816 4.61467 26.928 4.484 26.928C4.372 26.928 4.316 26.8253 4.316 26.62L4.4 23.96C4.41867 23.1387 4.428 22.364 4.428 21.636V10.38ZM18.54 12.956C18.7267 13.068 19.1187 13.3947 19.716 13.936C20.332 14.4773 20.64 14.8227 20.64 14.972C20.64 15.1027 20.4627 15.2053 20.108 15.28C19.772 15.336 19.38 15.5133 18.932 15.812C17.644 16.6707 16.5053 17.3613 15.516 17.884C14.5453 18.4067 13.136 19.032 11.288 19.76L10.98 19.312C12.9587 17.9867 14.4613 16.8853 15.488 16.008C16.5333 15.112 17.5507 14.0947 18.54 12.956ZM21.116 16.232C21.5453 16.6053 21.9747 17.0347 22.404 17.52C22.852 17.9867 23.076 18.276 23.076 18.388C23.076 18.4813 22.936 18.528 22.656 18.528C22.1707 18.528 21.6387 18.724 21.06 19.116C19.9773 19.8813 18.4187 20.684 16.384 21.524C14.3493 22.3453 12.2027 23.0173 9.944 23.54L9.72 23.148C14.424 21.1133 18.2227 18.808 21.116 16.232ZM23.944 18.948C24.3173 19.284 24.7467 19.7413 25.232 20.32C25.7173 20.88 25.96 21.244 25.96 21.412C25.96 21.5427 25.7453 21.608 25.316 21.608C24.9053 21.608 24.3547 21.8133 23.664 22.224C19.7253 24.5573 14.5547 26.0787 8.152 26.788L8.096 26.256C14.5547 24.744 19.8373 22.308 23.944 18.948ZM43.964 7.776H49.396L50.46 6.096C50.6093 5.85333 50.7493 5.732 50.88 5.732C51.1413 5.732 51.7013 6.124 52.56 6.908C53.4373 7.67333 53.876 8.168 53.876 8.392C53.876 8.52267 53.6987 8.588 53.344 8.588H48.416C50.2267 9.092 51.132 9.456 51.132 9.68C51.132 9.77333 51.02 9.86667 50.796 9.96C50.5907 10.0533 50.432 10.184 50.32 10.352C50.208 10.5013 50.1147 10.772 50.04 11.164C49.0507 15.8493 48.1453 18.724 47.324 19.788C48.836 21.244 51.3747 22.5507 54.94 23.708L54.884 24.24C53.7267 24.3707 52.952 24.5107 52.56 24.66C52.1867 24.8093 51.8413 25.108 51.524 25.556C51.4307 25.7053 51.328 25.78 51.216 25.78C51.0107 25.78 50.1987 25.2387 48.78 24.156C47.3613 23.092 46.3627 22.2147 45.784 21.524C43.768 23.4093 40.296 25.1827 35.368 26.844L35.144 26.312C39.4187 24.296 42.564 22.1493 44.58 19.872C43.6093 18.2293 42.7973 15.5227 42.144 11.752C41.2853 13.2453 40.3147 14.6453 39.232 15.952L38.728 15.644C41.024 11.22 42.5453 6.18 43.292 0.523999C45.7373 1.252 46.96 1.76533 46.96 2.064C46.96 2.15733 46.8107 2.24133 46.512 2.316C46.232 2.372 46.036 2.47467 45.924 2.624C45.812 2.77333 45.5693 3.38 45.196 4.444C44.8413 5.508 44.4307 6.61867 43.964 7.776ZM47.828 8.588H43.628C43.3853 9.16667 43.1053 9.80133 42.788 10.492C43.6467 13.908 44.636 16.4187 45.756 18.024C46.6333 16.2507 47.324 13.1053 47.828 8.588ZM36.516 10.184V3.94H30.72C30.216 3.94 29.824 4.00533 29.544 4.136L29.04 2.932C29.432 3.02533 29.8987 3.072 30.44 3.072H36.124L36.768 1.952C36.88 1.784 37.0013 1.7 37.132 1.7C37.2627 1.7 37.4213 1.74667 37.608 1.84C37.8133 1.93333 38.1867 2.15733 38.728 2.512C39.288 2.848 39.5867 3.03467 39.624 3.072C39.68 3.10933 39.708 3.156 39.708 3.212C39.708 3.41733 39.3907 3.75333 38.756 4.22L38.728 10.044C38.728 10.66 38.7373 11.0987 38.756 11.36C38.7747 11.6027 38.784 11.7893 38.784 11.92C38.784 12.0507 38.7 12.1813 38.532 12.312C38.3827 12.424 38.1027 12.5453 37.692 12.676C37.2813 12.8067 36.964 12.872 36.74 12.872C36.5907 12.872 36.516 12.732 36.516 12.452V11.108H32.764V20.964L40.464 17.576L40.716 18.08C36.7587 20.656 34.332 22.252 33.436 22.868C32.5587 23.484 32.0453 23.9133 31.896 24.156C31.7467 24.3987 31.6253 24.52 31.532 24.52C31.4387 24.52 31.2147 24.324 30.86 23.932C30.5053 23.5587 30.1133 23.0453 29.684 22.392C30.1133 22.0933 30.3747 21.888 30.468 21.776C30.5613 21.6453 30.608 21.44 30.608 21.16V11.836C30.608 10.7907 30.58 9.85733 30.524 9.036C31.4573 9.39067 32.2227 9.77333 32.82 10.184H36.516ZM70.284 3.884C67.4093 8.7 62.92 12.4427 56.816 15.112L56.564 14.608C62.2947 11.1173 66.336 6.44133 68.688 0.579999C70.9467 1.532 72.076 2.15733 72.076 2.456C72.076 2.58667 71.8987 2.67067 71.544 2.708C71.1893 2.74533 70.9373 2.876 70.788 3.1C71.7773 5.09733 73.364 6.852 75.548 8.364C77.7507 9.85733 80.252 10.912 83.052 11.528L82.996 12.2C81.8387 12.1813 81.0453 12.2653 80.616 12.452C80.1867 12.62 79.7667 12.984 79.356 13.544C79.2627 13.6747 79.1413 13.74 78.992 13.74C78.6373 13.74 77.3493 12.8253 75.128 10.996C72.9253 9.16667 71.3107 6.796 70.284 3.884ZM68.24 8.504C69.36 8.63467 70.2 8.80267 70.76 9.008C71.32 9.19467 71.6 9.344 71.6 9.456C71.6 9.58667 71.348 9.77333 70.844 10.016V22.728C70.844 23.344 70.8627 23.9973 70.9 24.688L70.928 25.64C70.928 25.7893 70.8347 25.9293 70.648 26.06C70.48 26.1907 70.1347 26.34 69.612 26.508C69.0893 26.676 68.688 26.76 68.408 26.76C68.2773 26.76 68.212 26.62 68.212 26.34L68.268 25.248C68.2867 24.5013 68.296 23.6613 68.296 22.728V10.996C68.296 10.0627 68.2773 9.232 68.24 8.504ZM97.64 5.368C97.136 11.6213 96.1 16.176 94.532 19.032C92.964 21.888 89.7067 24.5013 84.76 26.872L84.508 26.396C88.596 23.8387 91.3587 20.8053 92.796 17.296C94.252 13.7867 95.1107 8.35467 95.372 0.999998C96.2307 1.20533 97.024 1.43867 97.752 1.7C98.48 1.94267 98.9 2.11067 99.012 2.204C99.1427 2.27867 99.208 2.372 99.208 2.484C99.208 2.596 99.04 2.71733 98.704 2.848C98.3867 2.96 98.1627 3.1 98.032 3.268C98.8347 8.98 100.272 13.5253 102.344 16.904C104.435 20.2827 107.253 22.6347 110.8 23.96L110.716 24.492C110.193 24.4547 109.689 24.436 109.204 24.436C108.719 24.436 108.299 24.52 107.944 24.688C107.589 24.856 107.169 25.1827 106.684 25.668C106.553 25.7987 106.451 25.864 106.376 25.864C106.152 25.864 105.209 24.9213 103.548 23.036C101.887 21.1693 100.599 18.9947 99.684 16.512C98.7693 14.0107 98.088 10.296 97.64 5.368ZM128.216 5.088C128.085 4.84533 127.964 4.416 127.852 3.8C127.759 3.184 127.581 2.652 127.32 2.204C127.077 1.73733 126.611 1.15867 125.92 0.467999L126.144 0.0479989C127.656 0.458666 128.785 0.943999 129.532 1.504C130.297 2.064 130.68 2.652 130.68 3.268C130.68 3.884 130.344 4.49067 129.672 5.088H133.872L134.88 3.408C135.085 3.05333 135.291 2.876 135.496 2.876C135.701 2.876 136.243 3.27733 137.12 4.08C138.016 4.88267 138.464 5.38667 138.464 5.592C138.464 5.77867 138.277 5.872 137.904 5.872H122.28C121.776 5.872 121.384 5.93733 121.104 6.068L120.6 4.948C120.992 5.04133 121.459 5.088 122 5.088H128.216ZM116.512 11.528C115.243 13.376 113.964 14.888 112.676 16.064L112.228 15.7C115.159 11.78 117.249 6.84267 118.5 0.888C120.74 1.87733 121.86 2.52133 121.86 2.82C121.86 2.932 121.683 3.02533 121.328 3.1C120.973 3.17467 120.647 3.59467 120.348 4.36C119.676 6.05867 118.836 7.748 117.828 9.428C118.593 9.652 119.069 9.82 119.256 9.932C119.461 10.044 119.564 10.1747 119.564 10.324C119.564 10.4547 119.34 10.6227 118.892 10.828V26.06C118.892 26.2467 118.817 26.396 118.668 26.508C118.537 26.62 118.192 26.7693 117.632 26.956C117.091 27.1427 116.727 27.236 116.54 27.236C116.447 27.236 116.4 27.1333 116.4 26.928L116.484 24.296C116.503 23.4747 116.512 22.7 116.512 21.972V11.528ZM132.108 9.008L132.976 7.44C133.088 7.23467 133.219 7.132 133.368 7.132C133.517 7.132 134.003 7.45867 134.824 8.112C135.664 8.76533 136.084 9.22267 136.084 9.484C136.084 9.74533 135.916 9.876 135.58 9.876H124.24C123.736 9.876 123.344 9.94133 123.064 10.072L122.56 8.868C122.952 8.96133 123.419 9.008 123.96 9.008H132.108ZM132.136 12.816L133.088 11.136C133.181 10.9867 133.275 10.912 133.368 10.912C133.536 10.912 134.049 11.276 134.908 12.004C135.785 12.7133 136.224 13.1613 136.224 13.348C136.224 13.5347 136.047 13.628 135.692 13.628H124.408C123.904 13.628 123.512 13.6933 123.232 13.824L122.728 12.676C123.12 12.7693 123.587 12.816 124.128 12.816H132.136ZM126.06 17.016H132.248L132.948 15.924C133.041 15.7747 133.135 15.7 133.228 15.7C133.359 15.7 133.872 15.952 134.768 16.456C135.664 16.96 136.112 17.296 136.112 17.464C136.112 17.632 135.767 17.8747 135.076 18.192V23.652C135.076 24.044 135.085 24.38 135.104 24.66L135.16 25.36C135.16 25.6027 134.843 25.8267 134.208 26.032C133.573 26.2373 133.107 26.34 132.808 26.34C132.677 26.34 132.612 26.2373 132.612 26.032V23.792H125.388V25.444C125.388 25.6493 125.332 25.7893 125.22 25.864C125.127 25.9387 124.772 26.0693 124.156 26.256C123.54 26.4613 123.176 26.564 123.064 26.564C122.952 26.564 122.896 26.48 122.896 26.312L122.952 25.472C122.971 24.744 122.98 24.2027 122.98 23.848V18.248C122.98 17.464 122.952 16.6707 122.896 15.868C124.165 16.1853 125.22 16.568 126.06 17.016ZM132.612 22.924V17.884H125.388V22.924H132.612ZM150.588 4.052C150.831 3.00667 150.961 1.79333 150.98 0.411999C151.82 0.561333 152.548 0.729333 153.164 0.915999C153.799 1.10267 154.172 1.23333 154.284 1.308C154.396 1.38267 154.452 1.476 154.452 1.588C154.452 1.7 154.284 1.80267 153.948 1.896C153.631 1.97067 153.313 2.15733 152.996 2.456C152.697 2.736 152.324 3.268 151.876 4.052H158.316L159.184 2.54C159.259 2.40933 159.371 2.344 159.52 2.344C159.688 2.344 160.099 2.54933 160.752 2.96C161.405 3.37067 161.844 3.66 162.068 3.828C162.292 3.97733 162.404 4.12667 162.404 4.276C162.404 4.42533 162.105 4.71467 161.508 5.144V13.796C161.508 14.6173 161.517 15.196 161.536 15.532L161.564 16.484C161.564 16.6147 161.536 16.708 161.48 16.764C161.424 16.8013 161.237 16.8853 160.92 17.016C160.603 17.1467 160.239 17.2587 159.828 17.352C159.436 17.4267 159.184 17.464 159.072 17.464C158.979 17.464 158.932 17.2027 158.932 16.68V15.644H148.04V16.652C148.04 16.876 147.993 17.0253 147.9 17.1C147.807 17.156 147.461 17.2773 146.864 17.464C146.267 17.632 145.875 17.716 145.688 17.716C145.501 17.716 145.417 17.632 145.436 17.464C145.529 16.568 145.576 15.644 145.576 14.692V5.032C145.576 3.72533 145.567 2.932 145.548 2.652C146.724 3.044 147.713 3.51067 148.516 4.052H150.588ZM158.932 7.692V4.836H148.04V7.692H158.932ZM158.932 11.164V8.448H148.04V11.164H158.932ZM158.932 14.748V12.06H148.04V14.748H158.932ZM151.988 16.456C153.257 17.016 154.228 17.5293 154.9 17.996C155.572 18.444 155.908 18.9947 155.908 19.648C155.908 20.2827 155.74 20.8147 155.404 21.244C155.087 21.6733 154.751 21.888 154.396 21.888C154.06 21.888 153.827 21.58 153.696 20.964C153.341 19.3773 152.641 18.0427 151.596 16.96L151.988 16.456ZM160.948 17.464C162.647 18.3973 163.897 19.256 164.7 20.04C165.521 20.8053 165.932 21.58 165.932 22.364C165.932 22.924 165.764 23.4467 165.428 23.932C165.092 24.4173 164.775 24.66 164.476 24.66C164.177 24.66 163.963 24.5853 163.832 24.436C163.72 24.2867 163.515 23.7267 163.216 22.756C162.917 21.7853 162.6 21.0013 162.264 20.404C161.947 19.788 161.359 18.9667 160.5 17.94L160.948 17.464ZM159.268 18.752C159.305 20.8613 159.763 22.2893 160.64 23.036C160.845 23.204 160.948 23.344 160.948 23.456C160.948 23.5867 160.78 23.8947 160.444 24.38C160.108 24.884 159.763 25.2387 159.408 25.444C159.053 25.668 158.503 25.808 157.756 25.864C157.028 25.9387 155.693 25.976 153.752 25.976C151.811 25.976 150.42 25.9107 149.58 25.78C148.74 25.668 148.199 25.4253 147.956 25.052C147.713 24.6787 147.592 23.9413 147.592 22.84V20.068C147.592 19.3027 147.564 18.5373 147.508 17.772C148.124 17.9027 148.731 18.0613 149.328 18.248C149.925 18.416 150.28 18.5373 150.392 18.612C150.504 18.6867 150.56 18.7893 150.56 18.92C150.56 19.032 150.355 19.1813 149.944 19.368V22.224C149.944 22.728 149.972 23.064 150.028 23.232C150.084 23.4187 150.187 23.5307 150.336 23.568C150.504 23.624 151.045 23.6707 151.96 23.708C152.875 23.7453 153.649 23.764 154.284 23.764C155.721 23.764 156.655 23.6893 157.084 23.54C157.513 23.4093 157.812 23.0547 157.98 22.476C158.167 21.8973 158.391 20.6467 158.652 18.724L159.268 18.752ZM145.212 17.996C145.38 19.34 145.464 20.404 145.464 21.188C145.464 22.6627 145.156 23.7547 144.54 24.464C143.924 25.1733 143.28 25.528 142.608 25.528C142.179 25.528 141.824 25.4253 141.544 25.22C141.264 25.0147 141.124 24.7533 141.124 24.436C141.124 24.1187 141.404 23.6987 141.964 23.176C142.823 22.392 143.429 21.6173 143.784 20.852C144.139 20.0867 144.409 19.1347 144.596 17.996H145.212Z" fill="#134A8E"/>
</svg>
