<svg width="114" height="26" viewBox="0 0 114 26" fill="none" xmlns="http://www.w3.org/2000/svg">
<path d="M4 13L3.41435 12.5315L3.03953 13L3.41435 13.4685L4 13ZM12.1 13.75C12.5142 13.75 12.85 13.4142 12.85 13C12.85 12.5858 12.5142 12.25 12.1 12.25V13.75ZM7.01435 8.03148L3.41435 12.5315L4.58565 13.4685L8.18565 8.96852L7.01435 8.03148ZM3.41435 13.4685L7.01435 17.9685L8.18565 17.0315L4.58565 12.5315L3.41435 13.4685ZM4 13.75H12.1V12.25H4V13.75Z" fill="#050505"/>
<path d="M11.6737 19.7985L11.1014 20.2833L11.6737 19.7985ZM20.9388 20.7477L20.4541 20.1754L20.9388 20.7477ZM14.6654 5.98273L15.1366 5.90419L14.89 4.4246L14.4188 4.50314L14.6654 5.98273ZM21.2497 11.0828V14.9172H22.7497V11.0828H21.2497ZM15.1366 20.0958L14.6654 20.0173L14.4188 21.4969L14.89 21.5754L15.1366 20.0958ZM11.9497 9.51874V9.18851H10.4497V9.51874H11.9497ZM11.9497 16.8115V16.6594H10.4497V16.8115H11.9497ZM14.6654 20.0173C13.8483 19.8811 13.3041 19.789 12.901 19.669C12.518 19.555 12.3532 19.4403 12.2459 19.3137L11.1014 20.2833C11.4681 20.7162 11.9394 20.9478 12.473 21.1066C12.9866 21.2595 13.6396 21.367 14.4188 21.4969L14.6654 20.0173ZM10.4497 16.8115C10.4497 17.6014 10.4483 18.2633 10.5147 18.795C10.5837 19.3475 10.7347 19.8504 11.1014 20.2833L12.2459 19.3137C12.1387 19.1871 12.0527 19.0057 12.0032 18.6091C11.9511 18.1918 11.9497 17.6399 11.9497 16.8115H10.4497ZM21.2497 14.9172C21.2497 16.5841 21.2479 17.7537 21.1245 18.623C21.0041 19.4715 20.7846 19.8954 20.4541 20.1754L21.4236 21.3199C22.1539 20.7013 22.4649 19.8539 22.6097 18.8338C22.7515 17.8344 22.7497 16.5382 22.7497 14.9172H21.2497ZM14.89 21.5754C16.489 21.8419 17.7672 22.0567 18.7763 22.0811C19.8063 22.106 20.6933 21.9386 21.4236 21.3199L20.4541 20.1754C20.1235 20.4554 19.6693 20.6023 18.8125 20.5816C17.9348 20.5604 16.7808 20.3698 15.1366 20.0958L14.89 21.5754ZM15.1366 5.90419C16.7808 5.63017 17.9348 5.43964 18.8125 5.41844C19.6693 5.39774 20.1235 5.54457 20.4541 5.82459L21.4236 4.68006C20.6933 4.06138 19.8063 3.89399 18.7763 3.91887C17.7672 3.94325 16.489 4.15811 14.89 4.4246L15.1366 5.90419ZM22.7497 11.0828C22.7497 9.46177 22.7515 8.16556 22.6097 7.16622C22.4649 6.14612 22.1539 5.29874 21.4236 4.68006L20.4541 5.82459C20.7846 6.1046 21.0041 6.52852 21.1245 7.37701C21.2479 8.24626 21.2497 9.41593 21.2497 11.0828H22.7497ZM14.4188 4.50314C13.6396 4.633 12.9866 4.74046 12.473 4.89336C11.9394 5.05223 11.4681 5.28381 11.1014 5.71672L12.2459 6.68629C12.3532 6.55971 12.518 6.44503 12.901 6.331C13.3041 6.211 13.8483 6.11892 14.6654 5.98273L14.4188 4.50314ZM11.9497 9.18851C11.9497 8.36008 11.9511 7.80818 12.0032 7.39085C12.0527 6.99431 12.1387 6.81286 12.2459 6.68629L11.1014 5.71672C10.7347 6.14964 10.5837 6.65252 10.5147 7.20502C10.4483 7.73674 10.4497 8.3986 10.4497 9.18851H11.9497Z" fill="#050505"/>
<path d="M44.3 6.22H48.34L48.9 5.42C48.98 5.3 49.0733 5.24 49.18 5.24C49.2867 5.24 49.62 5.44667 50.18 5.86C50.74 6.27333 51.02 6.54667 51.02 6.68C51.02 6.8 50.7533 7 50.22 7.28V10.72L50.26 12.58C50.26 12.6867 50.24 12.7667 50.2 12.82C50.1733 12.86 50.06 12.94 49.86 13.06C49.66 13.18 49.4067 13.3 49.1 13.42C48.8067 13.5267 48.6267 13.58 48.56 13.58C48.5067 13.58 48.48 13.5067 48.48 13.36V12.72H43.82V18.38L47.04 16.9L47.26 17.2C45.7267 18.32 44.7 19.1133 44.18 19.58C43.66 20.0333 43.32 20.4 43.16 20.68C43.0667 20.8267 42.9933 20.9 42.94 20.9C42.7933 20.9 42.2933 20.3467 41.44 19.24C41.7733 19.0533 41.9733 18.9267 42.04 18.86C42.12 18.78 42.16 18.6667 42.16 18.52V6.94C42.16 6.27333 42.1467 5.68 42.12 5.16C42.9867 5.42667 43.7133 5.78 44.3 6.22ZM43.82 9.1H48.48V6.82H43.82V9.1ZM48.48 9.68H43.82V12.12H48.48V9.68ZM36.1 5.5C37.42 5.95333 38.4533 6.40667 39.2 6.86C39.9467 7.31333 40.32 7.83333 40.32 8.42C40.32 8.99333 40.1867 9.46 39.92 9.82C39.6667 10.1667 39.4067 10.34 39.14 10.34C38.8733 10.34 38.68 10.1 38.56 9.62C38.2133 8.36667 37.32 7.1 35.88 5.82L36.1 5.5ZM37.62 19.48V13.08H35.7C35.34 13.08 35.06 13.1267 34.86 13.22L34.5 12.36C34.78 12.4267 35.1133 12.46 35.5 12.46H37.56L38.12 11.68C38.2133 11.5467 38.32 11.48 38.44 11.48C38.5733 11.48 38.9133 11.6933 39.46 12.12C40.0067 12.5467 40.28 12.8133 40.28 12.92C40.28 13.0133 40.2067 13.1067 40.06 13.2C39.9133 13.28 39.6733 13.3933 39.34 13.54V19.82C40.1933 20.5667 41.22 20.9933 42.42 21.1C43.62 21.22 44.8267 21.28 46.04 21.28C48.6667 21.28 51.0533 21.1267 53.2 20.82L53.22 21.24C52.6467 21.3333 52.2267 21.4333 51.96 21.54C51.6933 21.66 51.52 21.8 51.44 21.96C51.3733 22.12 51.3333 22.3 51.32 22.5C51.32 22.7133 51.2933 22.8333 51.24 22.86C51.1867 22.9 51.0533 22.92 50.84 22.92C49.3333 22.92 47.5933 22.88 45.62 22.8C43.6467 22.72 42.3467 22.5733 41.72 22.36C41.0933 22.16 40.2933 21.56 39.32 20.56C39.0667 20.3067 38.82 20.18 38.58 20.18C38.34 20.18 38.1133 20.24 37.9 20.36C37.6867 20.48 37.3267 20.7867 36.82 21.28C36.3267 21.7867 35.9933 22.1667 35.82 22.42C35.6467 22.6867 35.5267 22.82 35.46 22.82C35.3933 22.82 35.2733 22.66 35.1 22.34C34.9267 22.02 34.6933 21.5467 34.4 20.92C35.8133 20.2 36.8867 19.72 37.62 19.48ZM48.28 15.88C50.2 16.9867 51.16 18.02 51.16 18.98C51.16 19.2333 51.0867 19.52 50.94 19.84C50.8067 20.16 50.66 20.32 50.5 20.32C50.34 20.32 50.2133 20.2733 50.12 20.18C50.0267 20.0867 49.8733 19.86 49.66 19.5C48.54 17.66 46.7333 15.9533 44.24 14.38L44.44 14.06C45.7067 14.58 46.8333 15.1 47.82 15.62C48.94 14.5667 49.76 13.74 50.28 13.14C51.28 13.9933 51.78 14.5133 51.78 14.7C51.78 14.78 51.7267 14.82 51.62 14.82C51.5133 14.82 51.42 14.8133 51.34 14.8C51.2733 14.7867 51.2067 14.78 51.14 14.78C50.7533 14.78 49.8 15.1467 48.28 15.88ZM62.92 20.94V12.8H59.46L59.04 13.5C58.9067 13.7133 58.7867 13.82 58.68 13.82C58.5867 13.82 58.34 13.7 57.94 13.46C57.5533 13.22 57.2133 12.98 56.92 12.74C57.1733 12.5267 57.3267 12.3667 57.38 12.26C57.4467 12.1533 57.48 11.9467 57.48 11.64V9.1C57.48 8.40667 57.46 7.85333 57.42 7.44C58.5533 7.70667 59.2267 7.88667 59.44 7.98C59.6533 8.07333 59.76 8.18 59.76 8.3C59.76 8.40667 59.5733 8.53333 59.2 8.68V12.22H62.92V6.66C62.92 5.64667 62.9067 5.03333 62.88 4.82C63.36 4.9 63.84 5.01333 64.32 5.16C64.8133 5.30667 65.1133 5.42667 65.22 5.52C65.34 5.6 65.4 5.68 65.4 5.76C65.4 5.96 65.1533 6.11333 64.66 6.22V12.22H68.48V8.64C68.48 8.09333 68.4667 7.71333 68.44 7.5C68.84 7.56667 69.3333 7.68667 69.92 7.86C70.52 8.02 70.82 8.16667 70.82 8.3C70.82 8.42 70.6267 8.54667 70.24 8.68V12.36L70.28 13.48C70.28 13.5867 70.24 13.68 70.16 13.76C70.0933 13.8267 69.8867 13.92 69.54 14.04C69.1933 14.16 68.9 14.22 68.66 14.22C68.54 14.22 68.48 14.1467 68.48 14V12.8H64.66V20.94H69.16V16.56C69.16 15.7867 69.1467 15.2933 69.12 15.08C70.6667 15.36 71.44 15.6067 71.44 15.82C71.44 15.9133 71.2667 16.04 70.92 16.2V21.42L70.96 22.54C70.96 22.6733 70.94 22.7533 70.9 22.78C70.8733 22.8067 70.7467 22.8733 70.52 22.98C70.2933 23.0867 70.0533 23.1733 69.8 23.24C69.5467 23.3067 69.3733 23.34 69.28 23.34C69.2 23.34 69.16 23.26 69.16 23.1V21.52H58.52L57.96 22.28C57.9067 22.36 57.82 22.4 57.7 22.4C57.5933 22.4 57.3333 22.2733 56.92 22.02C56.5067 21.7667 56.2067 21.5667 56.02 21.42C56.3133 21.22 56.5067 21.0267 56.6 20.84C56.6933 20.6667 56.74 20.4267 56.74 20.12V16.52C56.74 15.8 56.72 15.2933 56.68 15C58.24 15.3333 59.02 15.6 59.02 15.8C59.02 15.92 58.7933 16.0667 58.34 16.24V20.94H62.92ZM87.08 7.98C87.4133 8.60667 87.8133 9.20667 88.28 9.78C89.3333 8.88667 90.1867 7.99333 90.84 7.1C91.2933 7.5 91.66 7.86 91.94 8.18C92.22 8.5 92.36 8.69333 92.36 8.76C92.36 8.81333 92.32 8.84667 92.24 8.86C92.1733 8.86 92.0867 8.86 91.98 8.86C91.8733 8.86 91.6267 8.96 91.24 9.16C90.8533 9.34667 90.06 9.76667 88.86 10.42C89.9533 11.5267 91.5533 12.4733 93.66 13.26L93.58 13.62C92.9533 13.5933 92.4533 13.6333 92.08 13.74C91.72 13.8467 91.3933 14.1067 91.1 14.52C91.0333 14.6133 90.96 14.66 90.88 14.66C90.6933 14.66 90.1 14.1867 89.1 13.24C88.1133 12.28 87.3133 11.18 86.7 9.94C86.1 8.68667 85.62 7.04667 85.26 5.02L85.82 4.94C86.1267 5.88667 86.4533 6.72 86.8 7.44C87.72 6.65333 88.4267 5.78667 88.92 4.84C89.2933 5.14667 89.6267 5.45333 89.92 5.76C90.2133 6.05333 90.38 6.23333 90.42 6.3C90.46 6.35333 90.48 6.42 90.48 6.5C90.48 6.58 90.3667 6.62 90.14 6.62C89.82 6.62 89.44 6.71333 89 6.9C88.5733 7.08667 87.9333 7.44667 87.08 7.98ZM78.54 13.48C77.5533 14.1733 76.2667 14.8867 74.68 15.62L74.46 15.26C76.54 14.0067 78.14 12.7467 79.26 11.48C80.3933 10.2 81.2267 8.72667 81.76 7.06H77.34C76.98 7.06 76.7 7.10667 76.5 7.2L76.14 6.3C76.42 6.36667 76.7533 6.4 77.14 6.4H81.62L82.06 5.68C82.1533 5.53333 82.2533 5.46 82.36 5.46C82.4667 5.46 82.8267 5.64667 83.44 6.02C84.0533 6.39333 84.36 6.64667 84.36 6.78C84.36 6.9 84.2133 7 83.92 7.08C83.6267 7.14667 83.3333 7.46667 83.04 8.04C81.9467 10.2933 80.5333 12.0467 78.8 13.3C79.3067 13.46 79.8133 13.6733 80.32 13.94H87.18L87.56 13.2C87.6133 13.0933 87.6733 13.04 87.74 13.04C87.82 13.04 88.16 13.22 88.76 13.58C89.3733 13.94 89.68 14.1733 89.68 14.28C89.68 14.3733 89.4933 14.5333 89.12 14.76V16.18L89.16 17.56C89.16 17.6667 89.1 17.76 88.98 17.84C88.86 17.9067 88.6333 17.9933 88.3 18.1C87.9667 18.1933 87.7133 18.24 87.54 18.24C87.4333 18.24 87.38 18.1467 87.38 17.96V17.6H80.18C80.18 18 80.1533 18.22 80.1 18.26C80.7133 18.5 81.18 18.7533 81.5 19.02C81.8333 19.2867 82 19.6267 82 20.04C82 20.4533 81.9 20.7667 81.7 20.98C81.5 21.2067 81.3267 21.32 81.18 21.32C81.0333 21.32 80.92 21.2733 80.84 21.18C80.7733 21.0867 80.7067 20.9133 80.64 20.66C80.4533 19.9 80.0733 19.1867 79.5 18.52C79.3667 18.5733 79.0933 18.6533 78.68 18.76C78.5733 18.76 78.52 18.7067 78.52 18.6L78.56 17.88C78.5733 17.36 78.58 16.9 78.58 16.5V14.96C78.58 14.5733 78.5667 14.08 78.54 13.48ZM80.18 16.96H87.38V14.56H80.18V16.96ZM77.04 7.68C77.8933 8.06667 78.5333 8.42667 78.96 8.76C79.3867 9.09333 79.6 9.42 79.6 9.74C79.6 10.06 79.4867 10.3867 79.26 10.72C79.0333 11.0533 78.8067 11.22 78.58 11.22C78.4333 11.22 78.32 11.1733 78.24 11.08C78.1733 10.9733 78.0867 10.6933 77.98 10.24C77.8867 9.77333 77.7467 9.36667 77.56 9.02C77.3867 8.67333 77.1467 8.32667 76.84 7.98L77.04 7.68ZM85 11.7L85.54 10.96C85.6467 10.8 85.7467 10.72 85.84 10.72C85.9867 10.72 86.2867 10.92 86.74 11.32C87.2067 11.72 87.44 11.9933 87.44 12.14C87.44 12.2333 87.32 12.28 87.08 12.28H82.12C81.76 12.28 81.48 12.3267 81.28 12.42L80.92 11.6C81.2 11.6667 81.5333 11.7 81.92 11.7H85ZM85.82 21.42H89.26L90.26 20.28C90.4067 20.12 90.52 20.04 90.6 20.04C90.7333 20.04 91.1267 20.3067 91.78 20.84C92.4467 21.3733 92.78 21.7 92.78 21.82C92.78 21.94 92.6533 22 92.4 22H77.1C76.74 22 76.46 22.0467 76.26 22.14L75.9 21.32C76.18 21.3867 76.5133 21.42 76.9 21.42H84.96C85.4267 20.5133 85.86 19.3533 86.26 17.94C87.6067 18.4333 88.28 18.7667 88.28 18.94C88.28 19.0333 88.1867 19.0933 88 19.12C87.8133 19.1467 87.5867 19.3 87.32 19.58C87.0533 19.86 86.5533 20.4733 85.82 21.42ZM107.28 11.76L107.36 9.54H99.52C99.16 9.54 98.88 9.58667 98.68 9.68L98.32 8.82C98.6 8.88667 98.9333 8.92 99.32 8.92H107.38L107.46 6.78H98.44C98.08 6.78 97.8 6.82667 97.6 6.92L97.24 6.06C97.52 6.12667 97.8533 6.16 98.24 6.16H107.32L107.96 5.22C108.04 5.1 108.113 5.04 108.18 5.04C108.3 5.04 108.667 5.28667 109.28 5.78C109.893 6.26 110.2 6.56667 110.2 6.7C110.2 6.82 109.873 7.03333 109.22 7.34L109.04 11.76H110.08L110.9 10.58C111.047 10.3667 111.18 10.26 111.3 10.26C111.433 10.26 111.8 10.5467 112.4 11.12C113 11.68 113.3 12.0333 113.3 12.18C113.3 12.3533 113.08 12.44 112.64 12.44H104.94C105.46 13.9067 106.147 15.1533 107 16.18C108.08 15.1933 108.96 14.2 109.64 13.2C110.52 13.96 111.027 14.4133 111.16 14.56C111.307 14.6933 111.38 14.8067 111.38 14.9C111.38 14.9933 111.327 15.04 111.22 15.04C111.127 15.04 111.04 15.0333 110.96 15.02C110.893 15.0067 110.833 15 110.78 15C110.5 15 109.347 15.5067 107.32 16.52C108.747 18.08 110.84 19.2467 113.6 20.02L113.52 20.38C112.8 20.34 112.207 20.3933 111.74 20.54C111.287 20.6867 110.92 20.9533 110.64 21.34C110.573 21.4333 110.507 21.48 110.44 21.48C110.253 21.48 109.673 21.06 108.7 20.22C107.727 19.3933 106.92 18.4733 106.28 17.46C105.653 16.4467 105.173 15.26 104.84 13.9V20.1C104.84 20.8867 104.787 21.4133 104.68 21.68C104.587 21.9467 104.273 22.2267 103.74 22.52C103.207 22.8133 102.887 22.96 102.78 22.96C102.673 22.96 102.607 22.88 102.58 22.72C102.5 22.2133 102.293 21.82 101.96 21.54C101.627 21.26 101.007 20.9867 100.1 20.72V20.32C101.3 20.5067 102.067 20.6 102.4 20.6C102.733 20.6 102.94 20.54 103.02 20.42C103.1 20.3 103.14 20.06 103.14 19.7V12.44H96C95.6667 12.44 95.38 12.4733 95.14 12.54L94.8 11.66C95.08 11.7267 95.4133 11.76 95.8 11.76H107.28ZM97.48 13.12C98.6267 13.6267 99.4067 14.0267 99.82 14.32C100.247 14.6 100.52 14.8267 100.64 15C100.773 15.16 100.84 15.4 100.84 15.72C100.84 16.04 100.72 16.36 100.48 16.68C100.253 17 100.047 17.16 99.86 17.16C99.6867 17.16 99.54 16.9867 99.42 16.64C99.0867 15.68 98.38 14.5933 97.3 13.38L97.48 13.12ZM102.48 17.34C100.587 18.4733 99.3067 19.2867 98.64 19.78C97.9867 20.26 97.5933 20.62 97.46 20.86C97.34 21.1133 97.2 21.24 97.04 21.24C96.88 21.24 96.74 21.18 96.62 21.06L95.14 19.46C97.6867 18.7 100.08 17.8667 102.32 16.96L102.48 17.34Z" fill="#050505"/>
</svg>
