<svg width="1920" height="900" viewBox="0 0 1920 900" fill="none" xmlns="http://www.w3.org/2000/svg">
<g clip-path="url(#clip0_233_555)">
<rect width="1920" height="900" fill="white"/>
<rect width="1920" height="900" fill="#D7EBFF"/>
<rect opacity="0.5" x="258" y="102" width="1404" height="696" rx="48" fill="url(#paint0_linear_233_555)" fill-opacity="0.85"/>
<rect opacity="0.5" x="277.88" y="121.146" width="1364.24" height="657.709" rx="31" fill="url(#paint1_linear_233_555)"/>
<circle cx="104" cy="232" r="243" fill="url(#paint2_linear_233_555)"/>
<circle cx="746" cy="417" r="170" fill="url(#paint3_linear_233_555)"/>
<circle cx="517" cy="888" r="170" fill="url(#paint4_linear_233_555)"/>
<circle cx="1153" cy="915" r="170" fill="url(#paint5_linear_233_555)"/>
<circle cx="1593.5" cy="302.5" r="107.5" fill="url(#paint6_linear_233_555)"/>
<circle cx="1181.5" cy="125.5" r="221.5" fill="url(#paint7_linear_233_555)"/>
<path d="M1460.12 511.012C1459.38 511.15 1458.56 511.216 1457.64 511.203C1455.93 511.185 1454.67 510.849 1453.86 510.209C1453.04 509.568 1452.64 508.442 1452.65 506.838L1453.17 463.212C1453.56 463.075 1454.13 462.943 1454.89 462.836C1455.64 462.728 1456.48 462.668 1457.41 462.687C1459.11 462.711 1460.37 463.041 1461.19 463.681C1462.01 464.322 1462.41 465.442 1462.39 467.052L1462.27 477.12C1463.34 476.6 1464.58 476.151 1465.97 475.78C1467.36 475.41 1468.9 475.23 1470.61 475.249C1475.03 475.304 1478.54 476.484 1481.15 478.801C1483.75 481.119 1485.02 484.591 1484.96 489.206L1484.71 510.947C1484.32 511.037 1483.74 511.156 1482.99 511.288C1482.23 511.425 1481.42 511.491 1480.55 511.479C1478.79 511.46 1477.51 511.125 1476.69 510.484C1475.87 509.843 1475.48 508.718 1475.49 507.114L1475.7 489.527C1475.73 487.091 1475.11 485.324 1473.86 484.217C1472.61 483.109 1470.96 482.54 1468.92 482.515C1467.61 482.497 1466.39 482.688 1465.26 483.095C1464.14 483.496 1463.1 483.98 1462.18 484.555L1461.87 510.672C1461.43 510.761 1460.85 510.875 1460.12 511.012Z" fill="#1D68C1"/>
<path d="M1529.38 506.904C1528.99 507.656 1528.28 508.327 1527.26 508.903C1525.85 509.773 1524.06 510.497 1521.89 511.079C1519.72 511.661 1517.26 511.94 1514.48 511.931C1511.95 511.925 1509.66 511.638 1507.62 511.068C1505.58 510.505 1503.84 509.632 1502.37 508.463C1500.92 507.292 1499.8 505.806 1499.03 504.004C1498.26 502.202 1497.88 500.062 1497.88 497.585L1497.95 476.357C1498.33 476.215 1498.91 476.083 1499.66 475.957C1500.41 475.843 1501.26 475.783 1502.18 475.785C1503.88 475.79 1505.14 476.1 1505.97 476.71C1506.8 477.32 1507.2 478.454 1507.21 480.105L1507.16 497.468C1507.15 500.001 1507.79 501.809 1509.07 502.914C1510.36 504.008 1512.19 504.568 1514.57 504.572C1516.08 504.578 1517.36 504.434 1518.41 504.146C1519.45 503.858 1520.24 503.543 1520.78 503.203L1520.86 476.416C1521.25 476.274 1521.83 476.142 1522.58 476.02C1523.34 475.906 1524.15 475.842 1525.03 475.847C1526.78 475.85 1528.06 476.159 1528.86 476.773C1529.66 477.386 1530.05 478.516 1530.06 480.167L1529.99 504.099C1529.97 505.216 1529.77 506.152 1529.38 506.904Z" fill="#1D68C1"/>
<path d="M1573.69 502.504C1573.38 505.971 1571.86 508.574 1569.12 510.297C1566.37 512.029 1562.52 512.675 1557.56 512.236C1555.53 512.061 1553.69 511.748 1552.06 511.305C1550.43 510.862 1549.03 510.306 1547.86 509.628C1546.7 508.95 1545.82 508.175 1545.22 507.303C1544.63 506.431 1544.37 505.494 1544.46 504.503C1544.54 503.562 1544.82 502.762 1545.3 502.103C1545.79 501.445 1546.39 500.928 1547.13 500.537C1548.44 501.552 1549.97 502.487 1551.71 503.335C1553.46 504.191 1555.53 504.721 1557.9 504.925C1559.93 505.1 1561.5 504.9 1562.59 504.326C1563.69 503.752 1564.29 502.863 1564.4 501.677C1564.57 499.651 1563.21 498.18 1560.29 497.272L1556.22 495.94C1552.63 494.78 1550.02 493.275 1548.41 491.435C1546.81 489.595 1546.12 487.267 1546.37 484.445C1546.66 481.224 1548.17 478.73 1550.92 476.948C1553.67 475.165 1557.38 474.479 1562.04 474.888C1563.82 475.041 1565.45 475.323 1566.94 475.734C1568.43 476.137 1569.7 476.652 1570.77 477.264C1571.84 477.884 1572.65 478.576 1573.21 479.347C1573.76 480.118 1574 480.978 1573.92 481.919C1573.84 482.809 1573.57 483.575 1573.12 484.208C1572.66 484.84 1572.15 485.33 1571.57 485.677C1571.15 485.344 1570.59 484.988 1569.9 484.633C1569.21 484.27 1568.44 483.934 1567.59 483.607C1566.75 483.28 1565.85 482.997 1564.9 482.73C1563.94 482.473 1563 482.3 1562.06 482.22C1560.13 482.052 1558.59 482.226 1557.45 482.75C1556.3 483.273 1555.68 484.103 1555.58 485.239C1555.5 486.079 1555.75 486.803 1556.32 487.405C1556.88 488.007 1557.92 488.542 1559.43 489.029L1562.99 490.241C1567.03 491.54 1569.88 493.176 1571.55 495.143C1573.23 497.143 1573.94 499.588 1573.69 502.504Z" fill="#1D68C1"/>
<path d="M1597.08 506.115C1598.03 506.795 1599.36 507.14 1601.06 507.142C1601.89 507.145 1602.73 507.048 1603.58 506.855C1604.44 506.661 1605.2 506.415 1605.88 506.126C1606.27 506.515 1606.6 506.989 1606.87 507.548C1607.13 508.111 1607.27 508.753 1607.27 509.486C1607.26 510.946 1606.61 512.148 1605.29 513.09C1603.98 514.04 1601.86 514.506 1598.94 514.5C1595.1 514.491 1592.07 513.62 1589.86 511.894C1587.65 510.168 1586.55 507.301 1586.55 503.311L1586.61 469.821C1587 469.724 1587.57 469.604 1588.32 469.461C1589.08 469.318 1589.9 469.245 1590.77 469.248C1592.48 469.25 1593.72 469.571 1594.53 470.203C1595.33 470.835 1595.73 471.96 1595.72 473.56L1595.71 479.613L1606.44 479.63C1606.67 480.021 1606.89 480.53 1607.09 481.163C1607.29 481.797 1607.38 482.477 1607.38 483.21C1607.38 484.479 1607.09 485.4 1606.5 485.977C1605.91 486.562 1605.13 486.848 1604.16 486.846L1595.69 486.829L1595.67 502.734C1595.67 504.311 1596.14 505.43 1597.08 506.115Z" fill="#1D68C1"/>
<g clip-path="url(#clip1_233_555)">
<path d="M1361.56 483.007C1361.56 483.007 1365.24 481.104 1364.54 486.875C1363.84 492.636 1355.93 500.022 1354.73 507.449C1353.54 514.877 1374.07 578.79 1375.22 582.638C1376.37 586.485 1376.94 588.943 1376.94 588.943L1301.32 581.238C1301.32 581.238 1280.48 564.08 1281.02 564.429C1281.54 564.779 1308.87 523.641 1308.87 523.641L1324.46 488.49L1361.56 483.007Z" fill="#D7EBFF" stroke="#3B3548" stroke-width="3" stroke-miterlimit="10"/>
<path d="M1329.98 634.947C1332.14 634.649 1398.51 634.474 1399.73 635.873C1400.95 637.272 1413.43 646.86 1412.87 656.54C1412.3 666.21 1365.68 743.744 1365.68 743.744C1365.68 743.744 1356.66 741.47 1350 743.744C1343.35 746.017 1358.75 738.168 1367.16 745.492C1375.58 752.817 1377.08 756.345 1375.88 763.701C1374.69 771.056 1373.11 772.105 1373.11 772.105C1373.11 772.105 1317.96 772.918 1314.63 772.105C1311.31 771.292 1349.3 704.303 1349.3 704.303L1329.98 634.947Z" fill="#D7EBFF" stroke="#3B3548" stroke-width="3" stroke-miterlimit="10"/>
<path d="M1374.61 587.298C1375.48 588.069 1403.74 587.637 1406.86 588.944C1409.98 590.25 1412.52 598.089 1413.3 600.167C1414.09 602.245 1413.21 603.212 1411.9 603.212C1410.59 603.212 1409.8 603.613 1408.66 602.276C1407.52 600.938 1407.08 593.758 1403.84 592.966C1400.6 592.174 1376.79 591.124 1375.31 590.517C1373.83 589.911 1374.61 587.298 1374.61 587.298Z" fill="#D7EBFF" stroke="#3B3548" stroke-width="3" stroke-miterlimit="10"/>
<path d="M1300.07 550.357C1300.07 550.357 1291.17 555.572 1289.72 561.662C1288.27 567.762 1296.31 575.519 1303.98 578.698C1311.64 581.876 1396.05 588.522 1400.34 589.067C1404.63 589.612 1405.69 593.922 1406.61 596.546C1407.54 599.169 1407.08 603.644 1403.31 602.78C1399.53 601.916 1397.58 594.9 1394.05 594.632C1390.52 594.365 1392.24 602.08 1388.02 602.78C1383.8 603.479 1364.35 602.512 1364 610.227C1363.65 617.943 1335.14 637.807 1333.52 637.293C1331.91 636.778 1411.31 721.071 1411.31 721.071L1403.3 728.745C1403.3 728.745 1412.1 718.633 1424.68 717.82C1437.26 717.007 1443.88 722.799 1444.5 725.69C1445.13 728.58 1412.31 774.821 1409.47 773.504C1406.63 772.187 1273.91 638.867 1273.64 637.303C1273.36 635.729 1264.19 611.668 1264.19 611.668C1264.19 611.668 1240.72 597.358 1242.96 558.257C1245.21 519.156 1300.38 515.761 1299.55 513.663C1298.73 511.564 1319.25 481.804 1315.67 481.793C1312.09 481.783 1304.78 480.044 1306.21 468.934C1307 462.834 1313.59 461.456 1317.24 462.968C1319.46 463.883 1322.06 467.021 1324.44 467.69C1324.44 467.69 1333.97 453.73 1343.66 456.755C1353.36 459.779 1363.1 472.123 1361.51 480.199C1358.96 490.558 1351.36 503.54 1338.95 505.124C1326.24 506.349 1328.63 499.693 1326.48 498.458C1324.69 497.44 1323.67 498.695 1325.03 502.635C1326.39 506.585 1327.16 508.694 1328.14 511.605C1329.84 516.646 1349.31 582.833 1348.91 583.533" fill="#D7EBFF"/>
<path d="M1300.07 550.357C1300.07 550.357 1291.17 555.572 1289.72 561.662C1288.27 567.762 1296.31 575.519 1303.98 578.698C1311.64 581.876 1396.05 588.522 1400.34 589.067C1404.63 589.612 1405.69 593.922 1406.61 596.546C1407.54 599.169 1407.08 603.644 1403.31 602.78C1399.53 601.916 1397.58 594.9 1394.05 594.632C1390.52 594.365 1392.24 602.08 1388.02 602.78C1383.8 603.479 1364.35 602.512 1364 610.227C1363.65 617.943 1335.14 637.807 1333.52 637.293C1331.91 636.778 1411.31 721.071 1411.31 721.071L1403.3 728.745C1403.3 728.745 1412.1 718.633 1424.68 717.82C1437.26 717.007 1443.88 722.799 1444.5 725.69C1445.13 728.58 1412.31 774.821 1409.47 773.504C1406.63 772.187 1273.91 638.867 1273.64 637.303C1273.36 635.729 1264.19 611.668 1264.19 611.668C1264.19 611.668 1240.72 597.358 1242.96 558.257C1245.21 519.156 1300.38 515.761 1299.55 513.663C1298.73 511.564 1319.25 481.804 1315.67 481.793C1312.09 481.783 1304.78 480.044 1306.21 468.934C1307 462.834 1313.59 461.456 1317.24 462.968C1319.46 463.883 1322.06 467.021 1324.44 467.69C1324.44 467.69 1333.97 453.73 1343.66 456.755C1353.36 459.779 1363.1 472.123 1361.51 480.199C1358.96 490.558 1351.36 503.54 1338.95 505.124C1326.24 506.349 1328.63 499.693 1326.48 498.458C1324.69 497.44 1323.67 498.695 1325.03 502.635C1326.39 506.585 1327.16 508.694 1328.14 511.605C1329.84 516.646 1349.31 582.833 1348.91 583.533" stroke="#3B3548" stroke-width="3" stroke-miterlimit="10"/>
<path d="M1365.57 609.672C1364.36 608.715 1362.52 604.878 1364.79 603.829C1367.07 602.78 1418.9 603.695 1423.1 603.613C1427.31 603.52 1430.9 599.344 1431.86 596.978C1432.63 595.085 1448.71 558.597 1455.04 542.549C1456.45 538.969 1458.38 540.296 1458.03 541.983C1457.54 544.308 1434.72 601.792 1433.92 603.284C1433.13 604.765 1432.39 607.265 1432.34 609.075C1432.32 610.31 1365.57 609.672 1365.57 609.672Z" fill="white" stroke="#3B3548" stroke-width="2" stroke-miterlimit="10"/>
<path d="M1337.05 506.565C1336.18 506.472 1332.97 506.565 1331.16 508.313C1329.35 510.062 1330.04 518.734 1330.39 519.609C1330.74 520.483 1324.71 499.652 1324.71 499.652C1324.71 499.652 1325.91 498.86 1326.5 499.652C1327.07 500.444 1329.12 503.551 1331.17 504.271C1333.21 504.991 1337.05 506.565 1337.05 506.565Z" fill="#3B3548"/>
<path d="M1289.95 651.87C1292.56 647.436 1301.97 637.385 1313.03 637.684C1324.09 637.982 1337.19 641.624 1337.05 641.459C1336.91 641.295 1331.71 629.742 1330.88 629.917C1330.04 630.092 1274.19 630.267 1274.19 630.267L1271.71 631.635L1273.66 637.303L1289.95 651.87Z" fill="#3B3548"/>
<path d="M1526 637.303C1417.08 637.303 1308.16 637.303 1199.24 637.303C1193.14 637.303 1187.04 637.303 1180.94 637.303C1180.58 637.303 1178.67 637.262 1177.13 635.842C1176.15 634.947 1175.54 633.703 1175.54 632.334V615.35C1175.54 612.624 1177.97 610.392 1180.94 610.392H1526.01C1528.99 610.392 1531.41 612.624 1531.41 615.35V632.334C1531.4 635.061 1528.98 637.303 1526 637.303Z" fill="#D7EBFF" stroke="#3B3548" stroke-width="3" stroke-miterlimit="10"/>
<path d="M1343.28 470.076C1341.49 468.955 1338.07 468.235 1336.61 469.963C1335.95 470.745 1335.67 472.051 1336.3 473.018C1337.44 474.778 1341.13 474.706 1343.12 473.512C1343.45 473.317 1344.75 472.535 1344.58 471.527C1344.47 470.827 1343.73 470.354 1343.28 470.076Z" fill="#3B3548"/>
<path d="M1355.79 475.899C1354.85 476.022 1354.26 476.938 1354.05 477.504C1353.6 478.81 1354.33 480.785 1356.35 481.227C1357.58 481.495 1359.57 482.256 1360.29 481.32C1361.16 480.188 1359.86 477.72 1359.09 477.102C1358.6 476.722 1358.01 476.485 1357.5 476.29C1356.72 476.002 1356.29 475.837 1355.79 475.899Z" fill="#3B3548"/>
<path d="M1342.9 476.958C1341.9 476.691 1340.5 477.277 1340.29 478.46C1340.12 479.489 1340.92 480.477 1341.91 480.703C1342.8 480.909 1343.83 480.487 1344.22 479.654C1344.58 478.892 1344.24 478.141 1344.19 478.039C1344.16 477.987 1343.77 477.185 1342.9 476.958Z" fill="#3B3548"/>
<path d="M1347.39 480.847C1346.62 481.125 1346.37 481.917 1346.15 483.398C1345.77 486.011 1345.13 487.091 1344.19 487.801C1342.85 488.809 1341.99 488.778 1342 489.344C1342.01 490.095 1342.49 490.99 1343.19 491.216C1343.43 491.288 1344.06 491.412 1345.4 490.188C1348.39 487.451 1348.82 483.604 1348.76 482.256C1348.74 481.896 1348.7 481.186 1348.27 480.898C1347.92 480.662 1347.5 480.806 1347.39 480.847Z" fill="#3B3548"/>
<path d="M1333.69 479.283C1332.61 479.684 1331.39 481.649 1331.29 483.779C1331.14 486.916 1333.42 490.218 1335.08 489.992C1335.9 489.879 1336.74 488.881 1336.69 488.027C1336.62 486.741 1334.61 486.69 1334.3 485.198C1333.98 483.604 1336.04 482.534 1335.62 480.734C1335.5 480.219 1335.13 479.458 1334.51 479.252C1334.14 479.119 1333.81 479.242 1333.69 479.283Z" fill="#3B3548"/>
<path d="M1319.44 473.101C1319.21 472.01 1318.43 471.249 1318.31 471.136C1317.54 470.416 1317.32 470.683 1315.55 469.603C1314.84 469.171 1314.64 468.986 1314.2 468.945C1313.48 468.873 1312.56 469.192 1312.3 469.819C1311.96 470.632 1312.89 471.64 1313.6 472.401C1314.95 473.872 1317.17 475.24 1318.5 474.695C1318.68 474.623 1319.21 474.407 1319.41 473.893C1319.5 473.666 1319.51 473.42 1319.44 473.101Z" fill="#3B3548"/>
<path d="M1469.42 550.079C1469.42 550.079 1486.15 536.788 1489.21 534.587Z" fill="#FDF5F2"/>
<path d="M1469.42 550.079C1469.42 550.079 1486.15 536.788 1489.21 534.587" stroke="#3B3548" stroke-width="4" stroke-miterlimit="10" stroke-linecap="round"/>
<path d="M1472.8 560.232C1477.13 559.533 1501.47 554.276 1501.47 554.276Z" fill="#FDF5F2"/>
<path d="M1472.8 560.232C1477.13 559.533 1501.47 554.276 1501.47 554.276" stroke="#3B3548" stroke-width="4" stroke-miterlimit="10" stroke-linecap="round"/>
<path d="M1473.62 570.211C1476.77 571.96 1495.51 576.29 1498.14 577.36Z" fill="#FDF5F2"/>
<path d="M1473.62 570.211C1476.77 571.96 1495.51 576.29 1498.14 577.36" stroke="#3B3548" stroke-width="4" stroke-miterlimit="10" stroke-linecap="round"/>
<path d="M1330 454.491C1328.26 454.584 1326.97 453.411 1325.74 452.568C1321.71 449.821 1320.41 443.381 1322.92 439.071C1324.29 436.705 1322.79 435.615 1321.24 434.617C1319.18 433.3 1317.01 432.158 1314.85 431.037C1313.1 430.132 1311.23 428.887 1311.18 427.056C1311.13 425.173 1313.33 424.957 1314.95 424.206C1320.43 421.686 1326.18 420.04 1331.88 418.25C1334.9 417.304 1336.03 418.548 1335.38 421.737C1334.8 424.597 1334.56 427.56 1333.66 430.306C1332.82 432.806 1333.97 433.691 1335.81 434.709C1340.78 437.477 1343.19 442.384 1342.07 447.126C1341.16 450.86 1335.17 454.502 1330 454.491Z" fill="#3B3548"/>
<path d="M1226.08 681.918C1226.08 683.235 1225.81 684.243 1225.26 684.953C1224.7 685.663 1223.83 686.331 1222.62 686.959C1221.94 687.381 1221.08 687.761 1220.06 688.101C1219.03 688.44 1217.91 688.728 1216.67 688.965C1215.44 689.201 1214.16 689.397 1212.85 689.551C1211.54 689.706 1210.23 689.788 1208.91 689.788C1205.18 689.788 1201.73 689.304 1198.56 688.327C1195.38 687.36 1192.62 685.848 1190.28 683.801C1187.95 681.754 1186.12 679.151 1184.81 676.003C1183.49 672.855 1182.85 669.1 1182.85 664.739C1182.85 660.593 1183.52 656.931 1184.85 653.752C1186.19 650.573 1188.03 647.94 1190.37 645.831C1192.7 643.733 1195.42 642.138 1198.52 641.068C1201.62 639.988 1204.95 639.453 1208.53 639.453C1210.9 639.453 1213.04 639.649 1214.95 640.039C1216.87 640.43 1218.52 640.955 1219.92 641.613C1221.31 642.272 1222.38 643.054 1223.11 643.979C1223.84 644.895 1224.21 645.862 1224.21 646.86C1224.21 647.909 1223.92 648.825 1223.35 649.617C1222.77 650.409 1222.11 651.006 1221.38 651.427C1220.01 650.532 1218.36 649.709 1216.41 648.948C1214.47 648.187 1212.08 647.806 1209.24 647.806C1206.93 647.806 1204.8 648.187 1202.87 648.948C1200.92 649.709 1199.25 650.8 1197.87 652.219C1196.48 653.639 1195.39 655.398 1194.59 657.497C1193.8 659.595 1193.41 661.992 1193.41 664.667C1193.41 667.557 1193.8 670.047 1194.59 672.156C1195.39 674.254 1196.48 676.003 1197.87 677.392C1199.25 678.781 1200.91 679.809 1202.83 680.468C1204.75 681.126 1206.84 681.455 1209.1 681.455C1210.62 681.455 1212.01 681.322 1213.28 681.064C1214.54 680.797 1215.51 680.488 1216.19 680.118V669.162H1206.11C1205.84 668.74 1205.6 668.195 1205.4 667.506C1205.19 666.827 1205.08 666.066 1205.08 665.222C1205.08 663.854 1205.41 662.836 1206.06 662.146C1206.72 661.467 1207.58 661.118 1208.63 661.118H1221.87C1223.18 661.118 1224.21 661.488 1224.98 662.218C1225.74 662.959 1226.12 663.978 1226.12 665.294V681.918H1226.08Z" fill="#D7EBFF" stroke="#3B3548" stroke-width="2" stroke-miterlimit="10"/>
<path d="M1225.17 717.625V733.456C1224.69 733.559 1224.03 733.693 1223.16 733.847C1222.3 734.002 1221.36 734.084 1220.36 734.084C1218.37 734.084 1216.96 733.714 1216.15 732.983C1215.33 732.253 1214.92 731.018 1214.92 729.28V689.726C1214.92 688.728 1215.19 687.967 1215.71 687.442C1216.24 686.918 1216.98 686.496 1217.92 686.177C1218.76 685.92 1219.68 685.683 1220.71 685.467C1221.74 685.261 1222.8 685.087 1223.9 684.953C1225 684.819 1226.1 684.727 1227.21 684.675C1228.32 684.624 1229.36 684.593 1230.36 684.593C1237.3 684.593 1242.51 686.074 1246 689.047C1249.49 692.01 1251.24 696.022 1251.24 701.062C1251.24 706.103 1249.53 710.125 1246.11 713.119C1242.7 716.112 1237.76 717.614 1231.3 717.614H1225.17V717.625ZM1230.68 709.426C1233.83 709.426 1236.32 708.747 1238.13 707.379C1239.94 706.01 1240.85 703.912 1240.85 701.073C1240.85 698.347 1239.99 696.289 1238.28 694.931C1236.58 693.563 1234.1 692.884 1230.84 692.884C1228.57 692.884 1226.66 693.038 1225.09 693.357V709.426H1230.68V709.426Z" fill="#D7EBFF" stroke="#3B3548" stroke-width="2" stroke-miterlimit="10"/>
<path d="M1223.55 767.404H1205.9C1205.32 769.348 1204.71 771.375 1204.05 773.473C1203.39 775.572 1202.86 777.31 1202.43 778.668C1201.91 778.874 1201.34 779.059 1200.74 779.224C1200.13 779.378 1199.38 779.46 1198.49 779.46C1196.7 779.46 1195.31 779.111 1194.32 778.401C1193.32 777.691 1192.81 776.683 1192.81 775.366C1192.81 774.739 1192.91 774.121 1193.09 773.514C1193.28 772.907 1193.49 772.218 1193.76 771.426C1194.18 769.955 1194.75 768.186 1195.46 766.108C1196.17 764.03 1196.93 761.777 1197.74 759.328C1198.56 756.89 1199.44 754.36 1200.39 751.767C1201.33 749.165 1202.24 746.645 1203.1 744.206C1203.97 741.768 1204.81 739.474 1205.62 737.355C1206.44 735.226 1207.13 733.405 1207.71 731.883C1208.39 731.512 1209.41 731.152 1210.75 730.782C1212.08 730.411 1213.44 730.226 1214.8 730.226C1216.64 730.226 1218.32 730.504 1219.84 731.049C1221.36 731.605 1222.33 732.479 1222.75 733.693C1223.8 736.584 1224.95 739.906 1226.22 743.661C1227.48 747.416 1228.75 751.294 1230.03 755.286C1231.32 759.277 1232.56 763.196 1233.78 767.023C1234.98 770.86 1236.06 774.296 1237.01 777.341C1236.48 777.917 1235.76 778.401 1234.84 778.802C1233.92 779.193 1232.83 779.388 1231.57 779.388C1229.72 779.388 1228.43 779.059 1227.67 778.401C1226.91 777.742 1226.31 776.703 1225.9 775.284L1223.55 767.404ZM1214.73 739.197C1214.25 740.513 1213.74 741.984 1213.19 743.61C1212.64 745.235 1212.06 746.933 1211.47 748.692C1210.86 750.451 1210.24 752.241 1209.61 754.051C1208.99 755.862 1208.38 757.641 1207.8 759.37H1221.52L1215.14 739.197H1214.73Z" fill="#D7EBFF" stroke="#3B3548" stroke-width="2" stroke-miterlimit="10"/>
<path d="M1214.74 730.772C1215.17 732.294 1215.95 733.127 1216.4 733.528C1218.73 735.596 1222.75 735.36 1224.3 733.631C1224.51 733.405 1224.86 733.004 1224.81 732.52C1224.75 731.841 1223.93 731.409 1221.18 730.247C1218.1 728.94 1217.74 728.889 1216.97 728.282C1215.69 727.253 1215.32 726.317 1214.92 726.441C1214.56 726.554 1214.33 727.469 1214.74 730.772Z" fill="#3B3548"/>
<path d="M1183.93 637.303C1185.68 639.556 1185.37 651.551 1185.33 651.767C1185.28 651.983 1191.94 644.278 1192.29 643.712C1192.64 643.146 1204.63 639.031 1204.63 639.031C1204.63 639.031 1202.84 637.591 1202.62 637.54C1202.39 637.488 1183.93 637.303 1183.93 637.303Z" fill="#3B3548"/>
<path d="M1511.62 681.939C1511.62 683.256 1511.34 684.264 1510.8 684.973C1510.24 685.683 1509.37 686.352 1508.16 686.979C1507.48 687.401 1506.62 687.782 1505.59 688.121C1504.56 688.461 1503.44 688.749 1502.21 688.985C1500.97 689.222 1499.7 689.417 1498.39 689.572C1497.08 689.726 1495.77 689.808 1494.45 689.808C1490.72 689.808 1487.27 689.325 1484.09 688.348C1480.91 687.381 1478.16 685.868 1475.82 683.821C1473.49 681.774 1471.66 679.172 1470.35 676.024C1469.03 672.876 1468.39 669.121 1468.39 664.759C1468.39 660.614 1469.05 656.951 1470.39 653.773C1471.73 650.594 1473.57 647.961 1475.91 645.852C1478.24 643.753 1480.96 642.159 1484.06 641.089C1487.16 640.009 1490.49 639.474 1494.07 639.474C1496.44 639.474 1498.58 639.669 1500.49 640.06C1502.4 640.451 1504.06 640.976 1505.46 641.634C1506.85 642.292 1507.92 643.074 1508.65 644C1509.38 644.916 1509.75 645.883 1509.75 646.88C1509.75 647.93 1509.46 648.845 1508.89 649.637C1508.31 650.429 1507.65 651.026 1506.92 651.448C1505.55 650.553 1503.9 649.73 1501.95 648.969C1500.01 648.207 1497.62 647.827 1494.78 647.827C1492.47 647.827 1490.34 648.207 1488.4 648.969C1486.46 649.73 1484.79 650.82 1483.4 652.24C1482.02 653.66 1480.93 655.419 1480.13 657.517C1479.34 659.616 1478.95 662.013 1478.95 664.687C1478.95 667.578 1479.34 670.067 1480.13 672.176C1480.93 674.275 1482.02 676.024 1483.4 677.412C1484.79 678.801 1486.45 679.83 1488.37 680.488C1490.29 681.147 1492.37 681.476 1494.64 681.476C1496.16 681.476 1497.55 681.342 1498.81 681.085C1500.08 680.828 1501.05 680.509 1501.73 680.139V669.183H1491.64C1491.38 668.761 1491.14 668.216 1490.93 667.527C1490.73 666.848 1490.62 666.086 1490.62 665.243C1490.62 663.875 1490.94 662.856 1491.6 662.167C1492.26 661.488 1493.12 661.138 1494.16 661.138H1507.4C1508.72 661.138 1509.75 661.509 1510.52 662.239C1511.28 662.98 1511.66 663.998 1511.66 665.315V681.939H1511.62Z" fill="#D7EBFF" stroke="#3B3548" stroke-width="2" stroke-miterlimit="10"/>
<path d="M1510.71 717.645V733.477C1510.23 733.58 1509.56 733.714 1508.7 733.868C1507.84 734.022 1506.9 734.105 1505.9 734.105C1503.91 734.105 1502.5 733.734 1501.68 733.004C1500.87 732.273 1500.46 731.039 1500.46 729.301V689.747C1500.46 688.749 1500.73 687.988 1501.25 687.463C1501.78 686.938 1502.52 686.517 1503.45 686.198C1504.3 685.94 1505.22 685.704 1506.25 685.488C1507.28 685.282 1508.34 685.107 1509.44 684.973C1510.54 684.84 1511.64 684.747 1512.75 684.696C1513.85 684.644 1514.9 684.613 1515.9 684.613C1522.83 684.613 1528.05 686.095 1531.54 689.068C1535.03 692.03 1536.77 696.042 1536.77 701.083C1536.77 706.124 1535.07 710.146 1531.65 713.14C1528.24 716.133 1523.3 717.635 1516.84 717.635H1510.71V717.645ZM1516.22 709.446C1519.37 709.446 1521.86 708.768 1523.67 707.399C1525.48 706.031 1526.38 703.933 1526.38 701.093C1526.38 698.367 1525.53 696.31 1523.82 694.952C1522.11 693.584 1519.64 692.905 1516.37 692.905C1514.11 692.905 1512.2 693.059 1510.62 693.378V709.446H1516.22V709.446Z" fill="#D7EBFF" stroke="#3B3548" stroke-width="2" stroke-miterlimit="10"/>
<path d="M1509.09 767.424H1491.44C1490.86 769.369 1490.25 771.395 1489.59 773.494C1488.93 775.592 1488.39 777.331 1487.97 778.689C1487.45 778.895 1486.88 779.08 1486.27 779.244C1485.67 779.399 1484.92 779.481 1484.03 779.481C1482.24 779.481 1480.85 779.131 1479.86 778.421C1478.86 777.712 1478.35 776.703 1478.35 775.387C1478.35 774.759 1478.45 774.142 1478.63 773.535C1478.82 772.928 1479.03 772.239 1479.3 771.447C1479.72 769.976 1480.29 768.206 1481 766.128C1481.71 764.05 1482.47 761.797 1483.28 759.349C1484.09 756.911 1484.98 754.38 1485.92 751.788C1486.87 749.185 1487.78 746.665 1488.64 744.227C1489.5 741.789 1490.35 739.495 1491.16 737.376C1491.97 735.246 1492.67 733.426 1493.25 731.903C1493.93 731.533 1494.95 731.173 1496.28 730.802C1497.62 730.432 1498.98 730.247 1500.34 730.247C1502.18 730.247 1503.86 730.525 1505.38 731.07C1506.9 731.625 1507.87 732.5 1508.29 733.714C1509.34 736.604 1510.49 739.927 1511.76 743.682C1513.02 747.437 1514.29 751.315 1515.57 755.306C1516.86 759.298 1518.1 763.217 1519.32 767.044C1520.52 770.881 1521.6 774.317 1522.55 777.362C1522.02 777.938 1521.3 778.421 1520.38 778.823C1519.46 779.213 1518.37 779.409 1517.1 779.409C1515.26 779.409 1513.97 779.08 1513.21 778.421C1512.44 777.763 1511.85 776.724 1511.44 775.304L1509.09 767.424ZM1500.28 739.217C1499.8 740.534 1499.29 742.005 1498.74 743.63C1498.19 745.256 1497.61 746.953 1497.01 748.712C1496.41 750.471 1495.79 752.261 1495.16 754.072C1494.54 755.882 1493.93 757.662 1493.35 759.39H1507.06L1500.69 739.217H1500.28Z" fill="#D7EBFF" stroke="#3B3548" stroke-width="2" stroke-miterlimit="10"/>
<path d="M1500.29 730.792C1500.72 732.315 1501.5 733.148 1501.95 733.549C1504.28 735.617 1508.3 735.38 1509.85 733.652C1510.06 733.426 1510.41 733.024 1510.36 732.541C1510.29 731.862 1509.48 731.43 1506.73 730.267C1503.65 728.961 1503.29 728.91 1502.52 728.303C1501.24 727.274 1500.87 726.338 1500.47 726.461C1500.11 726.574 1499.87 727.49 1500.29 730.792Z" fill="#3B3548"/>
<path d="M1469.47 637.313C1471.21 639.566 1470.91 651.561 1470.86 651.777C1470.82 651.993 1477.48 644.288 1477.83 643.722C1478.18 643.157 1490.17 639.042 1490.17 639.042C1490.17 639.042 1497.04 637.355 1496.83 637.313C1496.6 637.272 1469.47 637.313 1469.47 637.313Z" fill="#3B3548"/>
<path d="M1206.42 688.78C1213.51 688.224 1213.78 687.134 1217.55 684.85C1221.58 682.402 1225.58 678.781 1225.53 678.421C1225.48 678.061 1226.46 683.554 1225.22 684.624C1223.97 685.694 1217.79 688.841 1214.73 689.397C1206.75 690.847 1206.42 688.78 1206.42 688.78Z" fill="#3B3548"/>
</g>
<g style="mix-blend-mode:multiply">
<path d="M1432.7 670.44C1459.26 670.44 1480.8 648.904 1480.8 622.338C1480.8 595.771 1459.26 574.235 1432.7 574.235C1406.13 574.235 1384.59 595.771 1384.59 622.338C1384.59 648.904 1406.13 670.44 1432.7 670.44Z" fill="#B0D7FE"/>
</g>
<path d="M1245.21 362.418L1236.04 372.53C1235.05 373.618 1235.85 375.349 1237.33 375.319L1298.88 374.067C1300.36 374.037 1301.09 372.272 1300.05 371.226L1290.16 361.217C1290 361.052 1289.78 360.961 1289.54 360.966L1246.43 361.864C1245.96 361.874 1245.52 362.074 1245.21 362.418Z" fill="black"/>
<path d="M1260.82 422.985L1234.51 375.509L1246.23 363.543L1272.67 412.059L1260.82 422.985Z" fill="#D7EBFF"/>
<path fill-rule="evenodd" clip-rule="evenodd" d="M1233.03 376.314C1232.68 375.67 1232.78 374.872 1233.3 374.345L1245.02 362.379C1245.39 361.996 1245.93 361.814 1246.46 361.887C1246.99 361.96 1247.46 362.28 1247.71 362.748L1274.15 411.265C1274.52 411.935 1274.38 412.764 1273.82 413.283L1261.97 424.209C1261.59 424.56 1261.06 424.717 1260.55 424.635C1260.04 424.554 1259.59 424.241 1259.34 423.789L1233.03 376.314ZM1260.82 422.985L1272.67 412.059L1246.23 363.543L1234.51 375.509L1260.82 422.985Z" fill="black"/>
<path fill-rule="evenodd" clip-rule="evenodd" d="M1244.96 385.213C1245.37 384.988 1245.89 385.133 1246.11 385.537L1255.72 402.619C1255.95 403.022 1255.8 403.532 1255.39 403.756C1254.99 403.981 1254.47 403.836 1254.24 403.433L1244.64 386.35C1244.41 385.947 1244.56 385.438 1244.96 385.213Z" fill="black"/>
<path d="M1278.59 418.823L1301.49 373.992L1289.64 362.632L1265.22 410.151L1278.59 418.823Z" fill="#D7EBFF"/>
<path fill-rule="evenodd" clip-rule="evenodd" d="M1302.99 374.747C1303.33 374.093 1303.19 373.3 1302.66 372.79L1290.81 361.431C1290.43 361.062 1289.89 360.896 1289.36 360.983C1288.83 361.071 1288.38 361.401 1288.13 361.874L1263.71 409.393C1263.32 410.153 1263.57 411.083 1264.29 411.55L1277.67 420.222C1278.07 420.482 1278.57 420.561 1279.03 420.438C1279.49 420.315 1279.88 420.002 1280.1 419.578L1302.99 374.747ZM1278.59 418.823L1265.22 410.151L1289.64 362.632L1301.49 373.992L1278.59 418.823Z" fill="black"/>
<path fill-rule="evenodd" clip-rule="evenodd" d="M1287.94 373.847C1288.36 374.05 1288.54 374.55 1288.33 374.965L1281.42 389.013C1281.21 389.428 1280.71 389.6 1280.29 389.398C1279.87 389.195 1279.7 388.695 1279.9 388.28L1286.81 374.232C1287.02 373.817 1287.52 373.645 1287.94 373.847Z" fill="black"/>
<path d="M1286.19 413.023C1286.19 422.602 1278.35 430.368 1268.68 430.368C1259.01 430.368 1251.18 422.602 1251.18 413.023C1251.18 403.443 1259.01 395.677 1268.68 395.677C1278.35 395.677 1286.19 403.443 1286.19 413.023Z" fill="#D7EBFF"/>
<path fill-rule="evenodd" clip-rule="evenodd" d="M1287.88 413.023C1287.88 423.525 1279.28 432.04 1268.68 432.04C1258.08 432.04 1249.49 423.525 1249.49 413.023C1249.49 402.52 1258.08 394.005 1268.68 394.005C1279.28 394.005 1287.88 402.52 1287.88 413.023ZM1268.68 430.368C1278.35 430.368 1286.19 422.602 1286.19 413.023C1286.19 403.443 1278.35 395.677 1268.68 395.677C1259.01 395.677 1251.18 403.443 1251.18 413.023C1251.18 422.602 1259.01 430.368 1268.68 430.368Z" fill="black"/>
<path fill-rule="evenodd" clip-rule="evenodd" d="M1279.87 413.022C1279.87 419.146 1274.86 424.109 1268.68 424.109C1262.5 424.109 1257.49 419.146 1257.49 413.022C1257.49 406.899 1262.5 401.936 1268.68 401.936C1274.86 401.936 1279.87 406.899 1279.87 413.022ZM1268.68 422.437C1273.93 422.437 1278.19 418.222 1278.19 413.022C1278.19 407.823 1273.93 403.608 1268.68 403.608C1263.43 403.608 1259.18 407.823 1259.18 413.022C1259.18 418.222 1263.43 422.437 1268.68 422.437Z" fill="black"/>
<path d="M1157.59 478.961C1157.29 478.077 1157.77 477.121 1158.65 476.824L1195.03 464.607C1195.91 464.31 1196.87 464.786 1197.16 465.669L1213.1 513.127C1213.4 514.01 1212.92 514.967 1212.04 515.263L1175.66 527.481C1174.78 527.777 1173.82 527.302 1173.53 526.418L1157.59 478.961Z" fill="black"/>
<path d="M1153.41 476.873C1153.12 475.99 1153.59 475.033 1154.47 474.737L1190.85 462.519C1191.73 462.223 1192.69 462.698 1192.99 463.582L1208.93 511.039C1209.22 511.923 1208.75 512.879 1207.86 513.176L1171.49 525.393C1170.6 525.69 1169.65 525.214 1169.35 524.331L1153.41 476.873Z" fill="#D7EBFF"/>
<path fill-rule="evenodd" clip-rule="evenodd" d="M1153.94 473.137L1190.31 460.92C1192.08 460.326 1193.99 461.277 1194.59 463.044L1210.53 510.502C1211.12 512.269 1210.17 514.182 1208.4 514.776L1172.03 526.993C1170.26 527.587 1168.35 526.635 1167.75 524.868L1151.81 477.411C1151.22 475.644 1152.17 473.73 1153.94 473.137ZM1154.47 474.737C1153.59 475.033 1153.12 475.99 1153.41 476.874L1169.35 524.331C1169.65 525.214 1170.6 525.69 1171.49 525.393L1207.86 513.176C1208.75 512.879 1209.22 511.923 1208.93 511.039L1192.99 463.582C1192.69 462.698 1191.73 462.223 1190.85 462.519L1154.47 474.737Z" fill="black"/>
<path fill-rule="evenodd" clip-rule="evenodd" d="M1164.31 483.766C1164.16 483.324 1164.4 482.846 1164.84 482.697L1186.5 475.42C1186.95 475.272 1187.42 475.51 1187.57 475.951C1187.72 476.393 1187.48 476.871 1187.04 477.02L1165.37 484.297C1164.93 484.445 1164.45 484.208 1164.31 483.766Z" fill="black"/>
<path fill-rule="evenodd" clip-rule="evenodd" d="M1166.03 488.911C1165.89 488.469 1166.12 487.991 1166.56 487.842L1188.23 480.565C1188.67 480.417 1189.15 480.654 1189.3 481.096C1189.45 481.538 1189.21 482.016 1188.77 482.165L1167.1 489.442C1166.66 489.59 1166.18 489.352 1166.03 488.911Z" fill="black"/>
<path fill-rule="evenodd" clip-rule="evenodd" d="M1167.76 494.056C1167.61 493.614 1167.85 493.136 1168.29 492.987L1189.96 485.71C1190.4 485.562 1190.88 485.799 1191.03 486.241C1191.18 486.683 1190.94 487.161 1190.5 487.31L1168.83 494.587C1168.39 494.735 1167.91 494.497 1167.76 494.056Z" fill="black"/>
<path fill-rule="evenodd" clip-rule="evenodd" d="M1169.49 499.201C1169.34 498.759 1169.58 498.28 1170.02 498.132L1191.69 490.855C1192.13 490.706 1192.61 490.944 1192.76 491.386C1192.91 491.828 1192.67 492.306 1192.23 492.454L1170.56 499.732C1170.12 499.88 1169.64 499.642 1169.49 499.201Z" fill="black"/>
<path fill-rule="evenodd" clip-rule="evenodd" d="M1171.22 504.345C1171.07 503.903 1171.31 503.425 1171.75 503.277L1193.42 495.999C1193.86 495.851 1194.34 496.089 1194.48 496.531C1194.63 496.972 1194.4 497.451 1193.95 497.599L1172.29 504.876C1171.84 505.025 1171.37 504.787 1171.22 504.345Z" fill="black"/>
<path fill-rule="evenodd" clip-rule="evenodd" d="M1183.29 506.008C1183.44 506.45 1183.2 506.928 1182.76 507.077L1174.01 510.021C1173.57 510.17 1173.09 509.932 1172.95 509.491C1172.8 509.049 1173.03 508.57 1173.48 508.422L1182.22 505.477C1182.67 505.329 1183.14 505.566 1183.29 506.008Z" fill="black"/>
<path d="M1200.41 465.647C1200.65 464.748 1201.58 464.218 1202.48 464.464L1239.5 474.573C1240.4 474.819 1240.93 475.747 1240.68 476.646L1227.49 524.94C1227.25 525.839 1226.32 526.368 1225.42 526.123L1188.4 516.013C1187.5 515.768 1186.97 514.84 1187.22 513.941L1200.41 465.647Z" fill="#D7EBFF"/>
<path fill-rule="evenodd" clip-rule="evenodd" d="M1202.92 462.836L1239.94 472.945C1241.74 473.436 1242.8 475.292 1242.31 477.09L1229.12 525.384C1228.63 527.182 1226.77 528.242 1224.97 527.751L1187.96 517.641C1186.16 517.15 1185.1 515.294 1185.59 513.496L1198.78 465.202C1199.27 463.404 1201.13 462.345 1202.92 462.836ZM1202.48 464.463C1201.58 464.218 1200.65 464.748 1200.41 465.647L1187.22 513.941C1186.97 514.84 1187.5 515.768 1188.4 516.013L1225.42 526.123C1226.32 526.368 1227.25 525.839 1227.49 524.939L1240.68 476.646C1240.93 475.747 1240.4 474.819 1239.5 474.573L1202.48 464.463Z" fill="black"/>
<path fill-rule="evenodd" clip-rule="evenodd" d="M1218.46 507.773C1218.79 507.865 1219.03 508.144 1219.07 508.48L1220.11 516.766C1220.17 517.229 1219.84 517.651 1219.38 517.709C1218.92 517.767 1218.5 517.439 1218.44 516.977L1217.65 510.665L1213.62 515.676C1213.33 516.039 1212.8 516.097 1212.43 515.805C1212.07 515.513 1212.01 514.982 1212.3 514.619L1217.58 508.057C1217.79 507.792 1218.14 507.681 1218.46 507.773Z" fill="black"/>
<path fill-rule="evenodd" clip-rule="evenodd" d="M1214.5 512.218C1214.62 511.768 1215.08 511.503 1215.53 511.626L1219.05 512.588C1219.5 512.711 1219.77 513.175 1219.65 513.624C1219.52 514.074 1219.06 514.338 1218.61 514.216L1215.09 513.254C1214.64 513.131 1214.37 512.667 1214.5 512.218Z" fill="black"/>
<path fill-rule="evenodd" clip-rule="evenodd" d="M1223.52 512.308C1223.97 512.431 1224.24 512.895 1224.12 513.344L1223.45 515.772C1223.33 516.222 1222.87 516.487 1222.42 516.364C1221.97 516.241 1221.7 515.777 1221.82 515.328L1222.49 512.9C1222.61 512.45 1223.07 512.185 1223.52 512.308Z" fill="black"/>
<path fill-rule="evenodd" clip-rule="evenodd" d="M1225 514.89C1224.87 515.339 1224.41 515.604 1223.96 515.481L1221.53 514.818C1221.08 514.695 1220.82 514.231 1220.94 513.782C1221.06 513.332 1221.53 513.067 1221.98 513.19L1224.41 513.853C1224.86 513.976 1225.12 514.44 1225 514.89Z" fill="black"/>
<path d="M1225 492.514C1225.73 492.094 1225.99 491.158 1225.57 490.422C1225.15 489.687 1224.21 489.431 1223.48 489.851L1214.46 494.998C1213.65 495.46 1212.62 495.178 1212.16 494.369L1209.27 489.316C1208.85 488.58 1207.92 488.324 1207.18 488.744C1206.45 489.164 1206.19 490.101 1206.61 490.836L1210.33 497.354C1210.33 497.355 1210.33 497.356 1210.33 497.356C1210.33 497.357 1210.33 497.358 1210.33 497.359L1211.85 500.019C1211.85 500.02 1211.85 500.021 1211.85 500.02L1211.85 500.02C1211.85 500.02 1211.85 500.02 1211.85 500.021C1211.85 500.022 1211.86 500.022 1211.86 500.022L1214.52 498.503C1214.52 498.502 1214.52 498.501 1214.52 498.5C1214.52 498.499 1214.52 498.498 1214.52 498.497L1225 492.514Z" fill="#D7EBFF"/>
<path fill-rule="evenodd" clip-rule="evenodd" d="M1213.63 493.532L1222.64 488.385C1224.18 487.503 1226.15 488.04 1227.03 489.585C1227.92 491.13 1227.38 493.098 1225.83 493.98L1215.46 499.906C1215.42 499.928 1215.39 499.948 1215.35 499.968L1212.69 501.487C1212.29 501.717 1211.84 501.763 1211.42 501.652C1211 501.541 1210.62 501.266 1210.38 500.856L1208.86 498.196C1208.84 498.161 1208.83 498.126 1208.81 498.09L1205.15 491.673C1204.26 490.128 1204.8 488.161 1206.35 487.279C1207.89 486.397 1209.86 486.934 1210.74 488.479L1213.63 493.532ZM1225.57 490.422C1225.99 491.158 1225.73 492.094 1225 492.514L1214.52 498.497C1214.52 498.498 1214.52 498.499 1214.52 498.5C1214.52 498.5 1214.52 498.501 1214.52 498.501C1214.52 498.502 1214.52 498.502 1214.52 498.503L1211.86 500.022C1211.86 500.022 1211.86 500.022 1211.85 500.021C1211.85 500.02 1211.85 500.019 1211.85 500.02L1211.85 500.02C1211.85 500.021 1211.85 500.02 1211.85 500.019L1210.33 497.359C1210.33 497.358 1210.33 497.357 1210.33 497.356C1210.33 497.356 1210.33 497.355 1210.33 497.354L1206.61 490.836C1206.19 490.101 1206.45 489.164 1207.18 488.744C1207.92 488.324 1208.85 488.58 1209.27 489.316L1212.16 494.369C1212.62 495.178 1213.65 495.46 1214.46 494.998L1223.48 489.851C1224.21 489.431 1225.15 489.687 1225.57 490.422Z" fill="black"/>
<path d="M1377.79 385.552C1377.79 384.827 1378.37 384.239 1379.1 384.239H1442.14C1442.86 384.239 1443.45 384.827 1443.45 385.552V426.213C1443.45 426.937 1442.86 427.525 1442.14 427.525H1379.1C1378.37 427.525 1377.79 426.937 1377.79 426.213V385.552Z" fill="black"/>
<path d="M1374.55 382.199C1374.55 381.474 1375.14 380.887 1375.86 380.887H1438.9C1439.63 380.887 1440.21 381.474 1440.21 382.199V422.86C1440.21 423.585 1439.63 424.173 1438.9 424.173H1375.86C1375.14 424.173 1374.55 423.585 1374.55 422.86V382.199Z" fill="#D7EBFF"/>
<path fill-rule="evenodd" clip-rule="evenodd" d="M1375.86 379.574H1438.9C1440.35 379.574 1441.53 380.75 1441.53 382.199V422.86C1441.53 424.31 1440.35 425.485 1438.9 425.485H1375.86C1374.41 425.485 1373.24 424.31 1373.24 422.86V382.199C1373.24 380.75 1374.41 379.574 1375.86 379.574ZM1375.86 380.887C1375.14 380.887 1374.55 381.474 1374.55 382.199V422.86C1374.55 423.585 1375.14 424.173 1375.86 424.173H1438.9C1439.63 424.173 1440.21 423.585 1440.21 422.86V382.199C1440.21 381.474 1439.63 380.887 1438.9 380.887H1375.86Z" fill="black"/>
<path fill-rule="evenodd" clip-rule="evenodd" d="M1384.64 396.519C1384.64 396.156 1384.93 395.862 1385.3 395.862H1429.47C1429.83 395.862 1430.12 396.156 1430.12 396.519C1430.12 396.881 1429.83 397.175 1429.47 397.175H1385.3C1384.93 397.175 1384.64 396.881 1384.64 396.519Z" fill="black"/>
<path fill-rule="evenodd" clip-rule="evenodd" d="M1398.18 389.132C1398.18 388.769 1398.48 388.476 1398.84 388.476H1414.74C1415.1 388.476 1415.4 388.769 1415.4 389.132C1415.4 389.494 1415.1 389.788 1414.74 389.788H1398.84C1398.48 389.788 1398.18 389.494 1398.18 389.132Z" fill="black"/>
<path fill-rule="evenodd" clip-rule="evenodd" d="M1384.64 399.905C1384.64 399.543 1384.93 399.249 1385.3 399.249H1429.47C1429.83 399.249 1430.12 399.543 1430.12 399.905C1430.12 400.267 1429.83 400.561 1429.47 400.561H1385.3C1384.93 400.561 1384.64 400.267 1384.64 399.905Z" fill="black"/>
<path fill-rule="evenodd" clip-rule="evenodd" d="M1384.64 403.893C1384.64 403.53 1384.93 403.237 1385.3 403.237H1429.47C1429.83 403.237 1430.12 403.53 1430.12 403.893C1430.12 404.255 1429.83 404.549 1429.47 404.549H1385.3C1384.93 404.549 1384.64 404.255 1384.64 403.893Z" fill="black"/>
<path fill-rule="evenodd" clip-rule="evenodd" d="M1384.64 407.868C1384.64 407.506 1384.93 407.212 1385.3 407.212H1429.47C1429.83 407.212 1430.12 407.506 1430.12 407.868C1430.12 408.231 1429.83 408.524 1429.47 408.524H1385.3C1384.93 408.524 1384.64 408.231 1384.64 407.868Z" fill="black"/>
<path fill-rule="evenodd" clip-rule="evenodd" d="M1384.64 411.549C1384.64 411.186 1384.93 410.892 1385.3 410.892H1405.91C1406.27 410.892 1406.56 411.186 1406.56 411.549C1406.56 411.911 1406.27 412.205 1405.91 412.205H1385.3C1384.93 412.205 1384.64 411.911 1384.64 411.549Z" fill="black"/>
<path d="M1425.7 416.63H1432.77V429.144L1429.24 425.611L1425.7 429.144V416.63Z" fill="#D7EBFF"/>
<path fill-rule="evenodd" clip-rule="evenodd" d="M1424.39 416.63C1424.39 415.905 1424.98 415.317 1425.7 415.317H1432.77C1433.5 415.317 1434.08 415.905 1434.08 416.63V429.144C1434.08 429.675 1433.76 430.154 1433.27 430.357C1432.78 430.56 1432.22 430.448 1431.84 430.073L1429.24 427.467L1426.63 430.073C1426.26 430.448 1425.69 430.56 1425.2 430.357C1424.71 430.154 1424.39 429.675 1424.39 429.144V416.63ZM1429.24 425.611L1432.77 429.144V416.63H1425.7V429.144L1429.24 425.611Z" fill="black"/>
<path d="M1435.21 417.032C1435.21 420.244 1432.64 422.848 1429.47 422.848C1426.29 422.848 1423.72 420.244 1423.72 417.032C1423.72 413.82 1426.29 411.217 1429.47 411.217C1432.64 411.217 1435.21 413.82 1435.21 417.032Z" fill="#D7EBFF"/>
<path fill-rule="evenodd" clip-rule="evenodd" d="M1436.52 417.032C1436.52 420.953 1433.38 424.16 1429.47 424.16C1425.55 424.16 1422.41 420.953 1422.41 417.032C1422.41 413.111 1425.55 409.904 1429.47 409.904C1433.38 409.904 1436.52 413.111 1436.52 417.032ZM1429.47 422.848C1432.64 422.848 1435.21 420.244 1435.21 417.032C1435.21 413.82 1432.64 411.217 1429.47 411.217C1426.29 411.217 1423.72 413.82 1423.72 417.032C1423.72 420.244 1426.29 422.848 1429.47 422.848Z" fill="black"/>
<path fill-rule="evenodd" clip-rule="evenodd" d="M1433.84 417.032C1433.84 419.456 1431.9 421.45 1429.47 421.45C1427.03 421.45 1425.09 419.456 1425.09 417.032C1425.09 414.608 1427.03 412.614 1429.47 412.614C1431.9 412.614 1433.84 414.608 1433.84 417.032ZM1429.47 420.138C1431.16 420.138 1432.53 418.747 1432.53 417.032C1432.53 415.317 1431.16 413.926 1429.47 413.926C1427.77 413.926 1426.4 415.317 1426.4 417.032C1426.4 418.747 1427.77 420.138 1429.47 420.138Z" fill="black"/>
</g>
<defs>
<linearGradient id="paint0_linear_233_555" x1="791" y1="102" x2="1403.07" y2="851.586" gradientUnits="userSpaceOnUse">
<stop stop-color="white" stop-opacity="0.77"/>
<stop offset="1" stop-color="white" stop-opacity="0"/>
</linearGradient>
<linearGradient id="paint1_linear_233_555" x1="795.786" y1="121.146" x2="1370.76" y2="845.189" gradientUnits="userSpaceOnUse">
<stop stop-color="white" stop-opacity="0.77"/>
<stop offset="1" stop-color="white" stop-opacity="0"/>
</linearGradient>
<linearGradient id="paint2_linear_233_555" x1="104" y1="-11" x2="104" y2="475" gradientUnits="userSpaceOnUse">
<stop stop-color="white" stop-opacity="0.13"/>
<stop offset="1" stop-color="#369AFF" stop-opacity="0.15"/>
</linearGradient>
<linearGradient id="paint3_linear_233_555" x1="746" y1="247" x2="746" y2="587" gradientUnits="userSpaceOnUse">
<stop stop-color="white" stop-opacity="0.13"/>
<stop offset="1" stop-color="#369AFF" stop-opacity="0.15"/>
</linearGradient>
<linearGradient id="paint4_linear_233_555" x1="495.5" y1="651" x2="579.5" y2="1014" gradientUnits="userSpaceOnUse">
<stop stop-color="white" stop-opacity="0"/>
<stop offset="0.78365" stop-color="#369AFF" stop-opacity="0.15"/>
</linearGradient>
<linearGradient id="paint5_linear_233_555" x1="1153" y1="745" x2="1153" y2="1085" gradientUnits="userSpaceOnUse">
<stop stop-color="white" stop-opacity="0"/>
<stop offset="1" stop-color="#369AFF" stop-opacity="0.15"/>
</linearGradient>
<linearGradient id="paint6_linear_233_555" x1="1593.5" y1="195" x2="1593.5" y2="410" gradientUnits="userSpaceOnUse">
<stop stop-color="white" stop-opacity="0.13"/>
<stop offset="1" stop-color="#369AFF" stop-opacity="0.15"/>
</linearGradient>
<linearGradient id="paint7_linear_233_555" x1="1181.5" y1="-96" x2="1181.5" y2="347" gradientUnits="userSpaceOnUse">
<stop stop-color="#369AFF" stop-opacity="0.15"/>
<stop offset="1" stop-color="white" stop-opacity="0"/>
</linearGradient>
<clipPath id="clip0_233_555">
<rect width="1920" height="900" fill="white"/>
</clipPath>
<clipPath id="clip1_233_555">
<rect width="363.813" height="437.499" fill="white" transform="translate(1174 343)"/>
</clipPath>
</defs>
</svg>
